<?xml version="1.0" encoding="utf-8"?>
<!-- Generator: Adobe Illustrator 23.0.1, SVG Export Plug-In . SVG Version: 6.00 Build 0)  -->
<svg version="1.1" id="b8c64dc2-e86a-49bc-92bf-164106d9e7fb"
	 xmlns="http://www.w3.org/2000/svg" xmlns:xlink="http://www.w3.org/1999/xlink" x="0px" y="0px" width="887.9px" height="569.7px"
	 viewBox="0 0 887.9 569.7" style="enable-background:new 0 0 887.9 569.7;" xml:space="preserve">
<style type="text/css">
	.st0{fill:#E6E6E6;}
	.st1{fill:#FFFFFF;}
	.st2{fill:#0074D9;}
	.st3{fill:#CCCCCC;}
	.st4{fill:#3F3D56;}
	.st5{fill:url(#SVGID_1_);}
	.st6{fill:#464353;}
	.st7{opacity:0.1;enable-background:new    ;}
	.st8{fill:#514E7F;}
	.st9{fill:#A1616A;}
	.st10{opacity:5.000000e-02;enable-background:new    ;}
	.st11{opacity:0.1;}
</style>
<title>proud_coder</title>
<rect x="276.4" y="0.3" class="st0" width="611.5" height="391.6"/>
<rect x="293.9" y="49.5" class="st1" width="576.5" height="319.3"/>
<rect x="276.2" class="st2" width="611.5" height="26"/>
<circle class="st1" cx="295.5" cy="13.3" r="4.8"/>
<circle class="st1" cx="313.7" cy="13.3" r="4.8"/>
<circle class="st1" cx="332" cy="13.3" r="4.8"/>
<path class="st3" d="M707.3,79.4H519.6c-0.9-0.1-1.6-1-1.4-1.9c0.1-0.7,0.7-1.3,1.4-1.4h187.7c0.9,0.1,1.6,1,1.4,1.9
	C708.6,78.7,708,79.3,707.3,79.4z"/>
<path class="st3" d="M577.2,97.5H457.9c-0.9-0.1-1.6-1-1.4-1.9c0.1-0.7,0.7-1.3,1.4-1.4h119.3c0.9,0.1,1.6,1,1.4,1.9
	C578.6,96.9,578,97.4,577.2,97.5z"/>
<path class="st3" d="M707.3,97.9H587.9c-0.9-0.1-1.6-1-1.4-1.9c0.1-0.7,0.7-1.3,1.4-1.4h119.3c0.9,0.1,1.6,1,1.4,1.9
	C708.6,97.2,708,97.8,707.3,97.9z"/>
<path class="st3" d="M577.5,115.7H458.2c-0.9-0.1-1.6-1-1.4-1.9c0.1-0.7,0.7-1.3,1.4-1.4h119.3c0.9,0.1,1.6,1,1.4,1.9
	C578.8,115,578.3,115.6,577.5,115.7z"/>
<path class="st3" d="M577.8,133.9H458.5c-0.9-0.1-1.6-1-1.4-1.9c0.1-0.7,0.7-1.3,1.4-1.4h119.3c0.9,0.1,1.6,1,1.4,1.9
	C579.1,133.2,578.5,133.8,577.8,133.9z"/>
<path class="st3" d="M632,115.7h-34.2c-0.9-0.1-1.6-1-1.4-1.9c0.1-0.7,0.7-1.3,1.4-1.4H632c0.9,0.1,1.6,1,1.4,1.9
	C633.3,115,632.7,115.6,632,115.7L632,115.7z"/>
<path class="st3" d="M632,133.5h-34.2c-0.9-0.1-1.6-1-1.4-1.9c0.1-0.7,0.7-1.3,1.4-1.4H632c0.9,0.1,1.6,1,1.4,1.9
	C633.3,132.9,632.7,133.4,632,133.5L632,133.5z"/>
<path class="st3" d="M689.3,133.5h-34.2c-0.9-0.1-1.6-1-1.4-1.9c0.1-0.7,0.7-1.3,1.4-1.4h34.2c0.9,0.1,1.6,1,1.4,1.9
	C690.6,132.9,690.1,133.4,689.3,133.5z"/>
<path class="st3" d="M491.2,79.4H457c-0.9-0.1-1.6-1-1.4-1.9c0.1-0.7,0.7-1.3,1.4-1.4h34.2c0.9,0.1,1.6,1,1.4,1.9
	C492.5,78.7,491.9,79.3,491.2,79.4z"/>
<path class="st3" d="M576.8,287.7H457.5c-0.9-0.1-1.6-1-1.4-1.9c0.1-0.7,0.7-1.3,1.4-1.4h119.3c0.9,0.1,1.6,1,1.4,1.9
	C578.1,287,577.5,287.6,576.8,287.7L576.8,287.7z"/>
<path class="st3" d="M576.2,324H456.9c-0.9-0.1-1.6-1-1.4-1.9c0.1-0.7,0.7-1.3,1.4-1.4h119.3c0.9,0.1,1.6,1,1.4,1.9
	C577.5,323.3,577,323.9,576.2,324z"/>
<path class="st3" d="M576.5,342.2H457.2c-0.9-0.1-1.6-1-1.4-1.9c0.1-0.7,0.7-1.3,1.4-1.4h119.3c0.9,0.1,1.6,1,1.4,1.9
	C577.8,341.5,577.2,342.1,576.5,342.2L576.5,342.2z"/>
<path class="st3" d="M627.5,324.3h-34.2c-0.9-0.1-1.6-1-1.4-1.9c0.1-0.7,0.7-1.3,1.4-1.4h34.2c0.9,0.1,1.6,1,1.4,1.9
	C628.8,323.7,628.2,324.2,627.5,324.3L627.5,324.3z"/>
<path class="st3" d="M627.5,342.2h-34.2c-0.9-0.1-1.6-1-1.4-1.9c0.1-0.7,0.7-1.3,1.4-1.4h34.2c0.9,0.1,1.6,1,1.4,1.9
	C628.8,341.5,628.2,342.1,627.5,342.2L627.5,342.2z"/>
<path class="st3" d="M684.8,324.3h-34.2c-0.9-0.1-1.6-1-1.4-1.9c0.1-0.7,0.7-1.3,1.4-1.4h34.2c0.9,0.1,1.6,1,1.4,1.9
	C686.2,323.7,685.6,324.2,684.8,324.3z"/>
<path class="st3" d="M707.4,305.8H519.7c-0.9-0.1-1.6-1-1.4-1.9c0.1-0.7,0.7-1.3,1.4-1.4h187.7c0.9,0.1,1.6,1,1.4,1.9
	C708.7,305.2,708.2,305.7,707.4,305.8z"/>
<path class="st3" d="M491.3,305.8h-34.2c-0.9-0.1-1.6-1-1.4-1.9c0.1-0.7,0.7-1.3,1.4-1.4h34.2c0.9,0.1,1.6,1,1.4,1.9
	C492.7,305.2,492.1,305.7,491.3,305.8z"/>
<path class="st0" d="M470.6,546c14.4,19.3,44.4,21.3,44.4,21.3s6.6-29.3-7.9-48.6s-44.4-21.3-44.4-21.3S456.2,526.7,470.6,546z"/>
<path class="st0" d="M544.1,553.3c-9.5,12.7-29.3,14.1-29.3,14.1s-4.3-19.3,5.2-32.1s29.3-14.1,29.3-14.1S553.6,540.6,544.1,553.3z"
	/>
<rect y="567.4" class="st4" width="702.9" height="2.2"/>
<g>
	<circle class="st4" cx="645.7" cy="245.6" r="8.7"/>
	<circle class="st4" cx="676.2" cy="245.6" r="8.7"/>
	<circle class="st4" cx="706.8" cy="245.6" r="8.7"/>
	<path class="st2" d="M531.8,233.7h-42.3l-8.7,20.3H465l39.1-86.5h12.8l39.2,86.5h-15.7L531.8,233.7z M526.6,221.5l-15.9-37.1
		l-15.9,37.1H526.6z"/>
	<path class="st2" d="M623.1,192.6V254h-14.9v-9.8c-1.8,3.4-4.6,6.1-8,8c-3.5,1.9-7.5,2.9-11.9,2.9c-5.3,0-10.1-1.3-14.2-3.9
		c-4.1-2.6-7.3-6.3-9.6-11.1c-2.3-4.8-3.4-10.3-3.4-16.6c0-6.3,1.2-11.9,3.5-16.8c2.3-4.9,5.5-8.7,9.7-11.4
		c4.1-2.7,8.8-4.1,14.1-4.1c4.5,0,8.4,1,11.9,2.9c3.4,1.8,6.2,4.6,8,8v-9.2H623.1z M604,237.8c2.8-3.5,4.1-8.4,4.1-14.7
		c0-6.5-1.4-11.5-4.1-14.9c-2.8-3.5-6.7-5.2-11.8-5.2c-5,0-8.9,1.8-11.7,5.4c-2.8,3.6-4.2,8.6-4.2,15c0,6.3,1.4,11.2,4.2,14.6
		c2.8,3.4,6.7,5.1,11.8,5.1C597.4,243,601.2,241.3,604,237.8z"/>
</g>
<g>
	
		<linearGradient id="SVGID_1_" gradientUnits="userSpaceOnUse" x1="183.0309" y1="-107.3062" x2="183.0309" y2="370.5871" gradientTransform="matrix(1 0 0 -1 -24.78 457.78)">
		<stop  offset="0" style="stop-color:#808080;stop-opacity:0.25"/>
		<stop  offset="0.54" style="stop-color:#808080;stop-opacity:0.12"/>
		<stop  offset="1" style="stop-color:#808080;stop-opacity:0.1"/>
	</linearGradient>
	<path class="st5" d="M295.4,237.2l-0.3-0.6c1.9,0.6,3.7,1.5,5.4,2.5c-0.7-6.4-25.5-24.6-29.9-24.6c-4.5,0-9.4-7.7-9.4-7.7
		s-12.9-2-14.8-4.1c-2-2.1-15.3-0.9-18.6-0.1c-3.2,0.7-8.2-2-8.2-2s-2.7-4.5-6.2-4.5s-7.2-5-7.2-5s-3.2-3-6.2-3.5
		c-3-0.5-6.7-3.7-8.4-6.2c-1.7-2.5-10.4-3.7-15.3-3s-18.3-1-18.3-1c5.4-2.5,6.8-8.4,6.8-8.4c-4.9-0.3-17.7-11-17.7-11
		s0.5,3.5,1.1,8.3l-0.8-1.1l-0.1,0.1c-0.3-3.5-0.3-6.9-0.1-10.4c0-0.3,0-0.5,0.1-0.8c6.5-5.7,9.2-14.4,7.2-22.8
		c-0.1-0.6-0.3-1.1-0.5-1.7c0.9,0.4,1.9,0.6,3,0.7h0.5c1.2,0,2.4-0.5,3.3-1.4l0,0c0.1-0.2,0.3-0.4,0.4-0.6c0,0,0-0.1,0.1-0.1
		c0.1-0.2,0.2-0.4,0.2-0.6c0-0.1,0-0.1,0.1-0.2c0-0.2,0.1-0.3,0.1-0.5c0-0.1,0-0.3,0-0.4s0-0.2,0-0.3c0-1.1-0.3-2.3-0.7-3.3
		c-0.8-1.9-1.9-3.8-1.8-5.9c0-0.2,0-0.3,0.1-0.5c0.2-1.6,1.1-3.1,1.6-4.7v-0.1c0.1-0.2,0.1-0.5,0.2-0.7c0-0.1,0-0.1,0.1-0.2
		c0.1-0.3,0.1-0.5,0.1-0.8c0,0,0,0,0-0.1c0.2-3.1-2.3-5.8-5.1-7.1c-2.5-1.1-5.4-1.4-7.8-3c-2.6-1.7-4.1-4.8-6.1-7.3
		c-2.8-3.6-7.3-6.4-11.9-5.8c-2.8,0.3-5.4,1.8-8.2,2.4c-4.3,0.9-8.7-0.4-13,0.6c-1,0.2-2,0.7-2.6,1.5c-0.3,0.4-0.5,0.9-0.5,1.3l0,0
		c-0.1,0.4-0.1,0.9,0,1.4v0c0,0.4,0.1,0.9,0.2,1.3l0.1,0.3c0,0.1,0,0.2,0.1,0.3s0.1,0.3,0.1,0.5c0.1,0.3,0.1,0.6,0.2,0.9v0.1
		c0.1,0.3,0.1,0.6,0.2,0.9l0,0c0.1,0.6,0.2,1.3,0.2,1.9l0,0c0.2,1.8-0.2,3.7-1.1,5.3c-1.9,3-5.8,4.3-7.5,7.4
		c-0.4,0.7-0.7,1.6-0.7,2.4l0,0c0,0.3,0,0.6,0,0.8v0.1c0,0.2,0,0.5,0.1,0.7c0,0.1,0,0.1,0,0.2c0,0.2,0.1,0.4,0.1,0.7
		c0,0.1,0,0.1,0.1,0.2c0.1,0.3,0.2,0.5,0.3,0.7l0,0c0.8,1.7,2.3,3,2.6,4.8l0,0c0,0.1,0,0.1,0,0.2c0.2,1.4-0.4,2.7-0.7,4
		c0,0.2-0.1,0.3-0.1,0.5l0,0c0,0.1,0,0.1,0,0.2c0,0.1,0,0.2,0,0.3c0,0.1,0,0.1,0,0.2c0,0.1,0,0.2,0,0.3c0,0.1,0,0.1,0,0.2
		c0,0.1,0,0.2,0,0.3c0,0.1,0,0.1,0,0.2c0,0.1,0,0.2,0.1,0.3l0.1,0.2c0,0.1,0.1,0.2,0.1,0.3l0.1,0.2c0.1,0.1,0.1,0.2,0.2,0.3
		c0,0,0.1,0.1,0.1,0.1c0.1,0.1,0.2,0.2,0.3,0.3c1,0.7,2.6,0.5,3.5,1.5c0.1,0.1,0.2,0.2,0.2,0.4l0,0.1c0.1,0.1,0.1,0.3,0.1,0.4l0,0
		c0.1,0.6,0.1,1.1,0,1.7c-0.3,1.5-0.9,2.8-1.3,4.3c-0.1,0.3-0.1,0.6-0.1,0.9l0,0c0,0.1,0,0.3,0,0.4v0.1c0,0.1,0,0.3,0,0.4
		c0,0.1,0,0.1,0,0.1c0,0.2,0,0.4,0,0.6c0,0.2,0,0.2,0,0.3l0,0.2c0,0.1,0.1,0.2,0.1,0.3l0.1,0.2c0,0.1,0.1,0.2,0.1,0.3
		c0,0,0,0.1,0.1,0.1c0.1,0.2,0.2,0.3,0.3,0.4c0.9,1.2,2.4,1.6,3.9,1.6c0.9,0,1.8-0.1,2.6-0.3c0.2,0.5,0.4,0.9,0.6,1.3
		c1.1,2.2,2.5,4.1,4.2,5.9c0,0.2,0,0.5-0.1,0.7c-0.2,1.7-0.4,3.5-0.6,5.3c-1.9-0.9-3.4-1.2-4-0.6c-2.5,2.7,0,12.2,0,12.2
		s-12.1,0-15.1,2.7s-8.4,0-8.4,0s-11.1,1.2-10.4,3.5c0.7,2.2-5.9,0-5.9,0s-4.7,0.5-4.5,3.7c0.3,3.2-7.2,4.7-6.2,6.9
		c1,2.2-4.5,3.7-4.5,3.7s-5.4-0.2-3.5,3l0,0c0,0-3,6.9-5.4,7.4c-2.5,0.5-5.7,6.2-5.7,6.2s-9.5,1.7-9.1,4.7
		c0.4,3-14.6,24.3-14.6,24.3S12.5,247,16,254.4s5.9,12.4,6.7,15.1s9.7,14.7,9.7,16.9c0,0.7,2.2,4.5,5.3,9.2l-0.9,0.9l-2,2
		c0,0-6.2,15.4,1.2,16.1c6.3,0.6,10.8,1.1,13.1,0.5c0.4-0.1,0.7-0.2,1-0.5l0.1-0.1c2.7,4,4.6,6.8,4.6,6.8s0.3-0.4,0.7-1.1l0.7,1.1
		c0,0,0.6-0.8,1.6-2.2c-0.3,6.7-0.4,13.4-0.4,13.4s3.2-0.5,1.7,14.4c-1.5,14.9,8.9,27,8.9,27v22.1l0,0c0,0,0,0.6,0.1,1.5
		c0.3,3.2,1.2,10.6,3.9,15.6c3.5,6.4,0,23.3,0,23.3s-0.2,13.8,0.6,30.9c0,0.5,0.1,0.9,0.1,1.4c-15,12.5-31.1,29.2-31.1,29.2
		c0.8,0.2,1.5,0.6,2.2,1l-0.9,1.2l-4.1,5l0,0l-3.2,3.9l0,0l5,15.4l5.5-2.1c0,0,3,5.1,2.3,8.6c-0.1,0.6-0.4,1.2-0.7,1.7
		c-0.2,0.3-0.3,0.5-0.4,0.9c-1.4,5.6,4.5,29.7,14,30.7c0,0,3.2,1.1,4.2-1.8c0.5-1.4,0.5-3.7-0.6-7.5c0,0-5-6-1.8-12.5
		c1.9-3.8,5-8.9,7.3-12.5l0.9-1.5c2,2.6,3.3,4.2,3.3,4.2l7.3-7.8c0.2,0.3,0.3,0.7,0.5,1c0.5,1.1,1.2,2.1,1.9,3.1l4.9,19.6l2-0.4
		c0,0.5-0.1,1-0.1,1.5c-0.2,3.5,0,8.1,1.6,11.3c1.2,2.5,3.3,4.2,6.6,4.1c11.5-0.3,14.8-6.5,14.8-6.5V543l4-0.9
		c0,0-0.3-34.2-1.3-53.3c0-0.4,0-0.8-0.1-1.2c0-0.1,0-0.1,0-0.2l25.4-27.3l2-0.8c16.3-6.4,16.6-23.1,16.6-23.1s0-9.2,2-16.9
		s0.3-47.6-3.5-57.5c-3.7-9.9-4.9-21.1-4.9-21.1s3.7-5.2,0-9.5c-1-1.3-1.9-2.7-2.6-4.2l4.8-0.8l2.8-0.5l1.5-0.3
		c-0.7,6.6-0.9,11.6,0.9,12.8c5.4,3.7,23.7-8.7,23.7-8.7c-6.7,0-10.4-49.8-9-51.1c1.4-1.2,3.4-26.2,1.6-30.7
		c-1.8-4.5,6.2-24.3,6.2-24.3l1.2-1.8l0,0c0,0,29.2,12.7,32.4,15.2c3.2,2.4,13.4-5.9,15.1-2.7c1.7,3.2,12.6,8.1,12.6,8.1
		s16.1-1.6,17.8,2.3c1.7,4,12.1,13.3,12.1,13.3c0-2.2,0.1-4.4,0.4-6.5c0.2,0.5,0.4,1,0.6,1.6c4.9,11.7,13.1,26.4,20.7,18.5
		C306.1,262.3,299.6,245.6,295.4,237.2z M75.3,289.9v0.1V289.9L75.3,289.9z M69.6,232.7l-3.1,33.2l-6.2,6.4l-0.7,0.8l-6.4-7
		c0,0-3.2-1.5,0-4.2s-5.4-8.9-5.4-8.9s-0.3-4.5,3-5.7s7.4-9.4,7.4-9.4l11.6-5.9l0,0l0,0L69.6,232.7z M111,402.5
		c0.2-0.2,0.5-0.4,0.7-0.5c1.4-0.8,2.3,0.1,2.7,1.6c0.6,2.5,0.4,5.2-0.5,7.6c-1.7,4,2.5,19.8,2.5,19.8s-5.4,2.5-6.4,7.2
		c-0.1,0.6-0.4,1.1-0.7,1.6c-0.1-0.4-0.1-0.8-0.2-1.2c-0.5-3-0.7-4.9-0.7-4.9c-0.9-3.8-1.1-7.8-0.5-11.7c0.8-4.8,2.4-14.5,3-18.1
		C110.9,403.1,111,402.6,111,402.5L111,402.5z"/>
	<path class="st6" d="M145.5,160.9l1.6-1.1l4.5,9.5l-1.7,2h-5.3c0,0,0.2-5.2,0.3-5.4C145,165.9,145.5,160.9,145.5,160.9z"/>
	<path class="st4" d="M114.4,538.9v20.4c0,0-3.3,6.2-14.8,6.5c-2.9,0.2-5.5-1.5-6.6-4.1c-1.6-3.3-1.8-7.8-1.6-11.3
		c0.1-1.8,0.3-3.5,0.6-5.2L114.4,538.9z"/>
	<path class="st7" d="M114.4,538.9v6.3l-23.1,5.1c0.1-1.8,0.3-3.5,0.6-5.2L114.4,538.9z"/>
	<path class="st8" d="M118.4,542.9l-28.9,6.4l-4.9-19.5c-0.7-1-1.3-2-1.9-3.1c-0.3-0.6-0.6-1.3-0.9-2c-5.4-12.3-7.8-34.6-8.8-53.5
		c-0.1-1-0.1-1.9-0.1-2.8c-0.8-17.1-0.6-30.8-0.6-30.8s3.5-16.8,0-23.2c-2.7-5-3.6-12.4-3.9-15.6c-0.1-0.9-0.1-1.5-0.1-1.5l0.5-1.4
		l2.2-5.8h24l14,11.8l2.1,1.8l-0.2,1.5c-0.6,3.7-2.2,13.4-3,18.1c-0.6,3.9-0.4,7.8,0.5,11.6c0,0,0.3,1.9,0.7,4.9
		c0.1,0.7,0.2,1.5,0.4,2.4c1.8,11,5.1,31,6.5,35.8c0.4,1.3,0.7,4.6,1,9.1c0.1,0.9,0.1,1.8,0.2,2.8
		C118.1,508.7,118.4,542.9,118.4,542.9z"/>
	<path class="st7" d="M114.4,559.1v0.2c0,0-3.3,6.2-14.8,6.5c-2.9,0.2-5.5-1.5-6.6-4.1C98.1,563,106.5,563.8,114.4,559.1z"/>
	<path class="st9" d="M297.5,272.8c-7.6,7.9-15.8-6.8-20.7-18.4c-2.8-6.5-4.5-12.1-4.5-12.1l20.3-8.6c0,0,1.2,2,2.8,5.1
		C299.6,247.1,306.1,263.8,297.5,272.8z"/>
	<path class="st9" d="M147.2,156.8c-0.3,7.3,0.2,14.7,1.6,21.9c0,0-41.3,4.5-37.6-2c2.2-3.8,3.6-13.7,4.4-21.3
		c0.6-5.4,0.8-9.6,0.8-9.6S156,130,150,143.4C148.3,147.4,147.4,152.1,147.2,156.8z"/>
	<polygon class="st6" points="150.7,263.1 145.1,329.4 170.6,325.2 166.1,270.5 167.6,255.9 	"/>
	<polygon class="st7" points="170.6,325.3 159.5,327.1 145.1,329.5 146.1,317.4 150.7,263.2 156.4,260.8 160.5,259 167.6,256 
		166.1,270.6 	"/>
	<path class="st4" d="M63.3,543.2c-3.2,6.5,1.8,12.5,1.8,12.5c1.1,3.8,1.1,6.1,0.6,7.4c-1,2.9-4.2,1.8-4.2,1.8
		c-10.1-1.1-16.2-28.4-13.6-31.5c2.6-3.1-1.6-10.3-1.6-10.3l-5.5,2.1l-5-15.4l3.2-3.9l4.1-5l2.8-3.4l27.6,28.8c0,0-1.2,1.8-2.8,4.3
		C68.3,534.3,65.2,539.4,63.3,543.2z"/>
	<path class="st7" d="M117.1,489.7l-34.5,37c-6-11.8-8.6-35.5-9.7-55.5c6.4-5.3,12.6-9.9,17.3-12.2c0,0,15.9-11.5,19.2-17
		c1.8,11,5.1,31,6.5,35.8C116.4,479.4,116.8,483.8,117.1,489.7z"/>
	<polygon class="st7" points="108.8,401.8 68.7,395.8 70.9,390 94.9,390 	"/>
	<path class="st7" d="M116.9,486.9l-35.2,37.8c-5.4-12.3-7.8-34.6-8.8-53.5c-0.1-1-0.1-1.9-0.1-2.8c6.5-5.4,12.7-10,17.5-12.3
		c0,0,14.8-10.7,18.8-16.4c0.1,0.7,0.2,1.5,0.4,2.4c1.8,11,5.1,31,6.5,35.8C116.3,479.1,116.6,482.4,116.9,486.9z"/>
	<path class="st7" d="M73.4,526.4c0,0-1.2,1.8-2.8,4.3c-5.9-7.5-19.9-24.6-27.6-29.8l2.8-3.4L73.4,526.4z"/>
	<path class="st8" d="M162.9,420.4c-2,7.7-2,16.8-2,16.8s-0.3,16.6-16.6,23l-2,0.7l-67.5,72.4c0,0-25-32.7-33.1-34.6
		c0,0,32.9-33.9,48.5-41.3c0,0,18.8-13.6,19.8-18.3c1-4.7,6.4-7.2,6.4-7.2s-4.2-15.8-2.5-19.8c0.9-2.4,1.1-5.1,0.5-7.6
		c-0.5-1.5-1.4-2.4-2.7-1.6c-0.3,0.2-0.5,0.3-0.7,0.5l-42.8-6.4v-22c0,0-10.4-12.1-8.9-27s-1.7-14.3-1.7-14.3s0.2-25.1,2.3-27.2
		C62,304.6,82.3,295,82.3,295l63.7,11.3l2.6,12.2c0,0,2.2,9.7,5.9,14c3.7,4.3,0,9.5,0,9.5s1.2,11.1,4.9,21
		C163.2,372.9,164.9,412.8,162.9,420.4z"/>
	<path class="st7" d="M150,143.4c-1.8,4-2.6,8.7-2.9,13.4c-9.2,8-23.1,7.4-31.6-1.4c0.6-5.4,0.8-9.6,0.8-9.6S156,130,150,143.4z"/>
	<path class="st9" d="M155.1,138.7c0,12.7-10.3,23-23,23c-12.7,0-23-10.3-23-23c0-12.7,10.3-23,23-23c10.6,0,19.9,7.3,22.4,17.6
		C154.9,135.1,155.1,136.9,155.1,138.7z"/>
	<path class="st7" d="M136.4,178.8c0,0-16.5-7.7-17.6-8.7c-1-1-35.3,87.1-35.3,87.1L73.9,301c0,0,51.4,22,62.6,19s12.1,0,12.1,0
		s11.4-63.8,15.1-69.5c3.7-5.7-3.5-63.6-3.5-63.6l-12.9-16.8L136.4,178.8z"/>
	<path class="st7" d="M136.4,175.8c0,0-16.5-7.7-17.6-8.7c-1-1-35.3,87.1-35.3,87.1L73.9,298c0,0,51.4,22,62.6,19s12.1,0,12.1,0
		s11.4-63.8,15.1-69.5c3.7-5.7-3.5-63.6-3.5-63.6l-12.9-16.8L136.4,175.8z"/>
	<path class="st2" d="M163.6,249c-0.7,1.2-1.9,4.8-3.1,9.9c-0.9,3.5-1.8,7.7-2.8,12.3c-4.4,20.4-9.2,47.3-9.2,47.3s-0.3-0.9-2.4-1.2
		c-1.7-0.3-4.7-0.1-9.6,1.2c-11.1,3-62.6-19-62.6-19l1.5-6.7l8.2-37.1c0,0,34.4-88.1,35.4-87.1c0.6,0.6,7,3.7,11.9,6
		c3.1,1.5,5.6,2.6,5.6,2.6l10.4-8.2l0.6-0.5l12.8,16.8C160.2,185.4,167.4,243.3,163.6,249z"/>
	<path class="st7" d="M124.3,185.9c1.5,5.7-2,15.1-2,15.1s-11.9,29.2-15.3,42.7c-3.5,13.5-23.3,40.7-23.3,40.7s-2.9,2.9-7,7
		c-0.5,0.5-0.9,0.9-1.4,1.4l8.2-37.1c0,0,34.4-88.1,35.4-87.1c0.6,0.6,7,3.7,11.9,6C127.7,177.4,123.3,182.2,124.3,185.9z"/>
	<path class="st6" d="M122.8,185.9c1.5,5.7-2,15.1-2,15.1s-11.9,29.2-15.3,42.7c-3.5,13.5-23.3,40.7-23.3,40.7s-2.9,2.9-7,7
		c-0.5,0.5-1,1-1.5,1.5c-8,7.9-19.1,19-22.6,22.3c-0.5,0.5-0.9,0.8-1,0.9c-0.3,0.2-0.7,0.4-1,0.5c-2.3,0.6-6.8,0.2-13.1-0.5
		c-7.4-0.7-1.2-16.1-1.2-16.1l2-2l1.8-1.8l20.2-20.8l1.5-1.6l6.2-6.4l3.1-33.1l0.1-0.8c0,0-0.9-2.1-2.3-5.3
		c-3.8-8.7-11.2-25.4-13.9-30.8c-0.3-0.6-0.6-1.1-0.7-1.4c0,0,0-0.1-0.1-0.1c-2-3.2,3.5-3,3.5-3s5.4-1.5,4.5-3.7s6.4-3.7,6.2-6.9
		c-0.2-3.2,4.5-3.7,4.5-3.7s6.7,2.2,5.9,0s10.4-3.5,10.4-3.5s5.4,2.7,8.4,0c3-2.7,15.1-2.7,15.1-2.7s-2.5-9.4,0-12.1
		c2.5-2.7,21.1,12.1,21.1,12.1S121.3,180.2,122.8,185.9z"/>
	<path class="st7" d="M61,312.6c0,0,20.5,28.9,34.9,19.5c14.3-9.4-19.3-33.9-19.3-33.9L61,312.6z"/>
	<path class="st9" d="M61,311.1c0,0,20.5,28.9,34.9,19.5c14.3-9.4-19.3-33.9-19.3-33.9L61,311.1z"/>
	<path class="st7" d="M159.5,327c1.6-13.7,6.1-34.2,2.4-40.4c-1.8-3.1-3.2-9-4.2-15.4c-0.5-3.5-1-7.1-1.3-10.5
		c-0.9-9.1-1.2-17-1.2-17s-8.9-39.7-7.2-47.9c1.1-5.1-0.2-17.9-1.2-26.8l0.6-0.5l12.8,16.8c0,0,7.2,57.9,3.5,63.6
		c-0.7,1.2-1.9,4.8-3.1,9.9l7.1-3l-1.5,14.6l4.5,54.7L159.5,327z"/>
	<path class="st6" d="M147.1,159.9c0,0,12.8,10.7,17.7,11c0,0-1.3,5.9-6.8,8.4c0,0,13.4,1.8,18.3,1s13.6,0.5,15.3,3s5.5,5.7,8.5,6.2
		c3,0.5,6.2,3.5,6.2,3.5L184.5,225c0,0-7.9,19.8-6.2,24.2s-0.3,29.4-1.6,30.7c-1.4,1.2,2.4,51,9,51c0,0-18.3,12.4-23.7,8.7
		s6.9-43.8,1.5-52.9s-6.7-42.9-6.7-42.9s-8.9-39.7-7.2-47.9C151.3,187.7,147.1,159.9,147.1,159.9z"/>
	<path class="st7" d="M295.4,238.7c-6.6-2.1-16.7-2.1-18.6,15.6c-2.8-6.5-4.5-12.1-4.5-12.1l20.3-8.6
		C292.5,233.6,293.8,235.6,295.4,238.7z"/>
	<path class="st6" d="M194.1,191.4l12.1,1.5c0,0,3.7,4.9,7.2,4.9s6.2,4.5,6.2,4.5s4.9,2.7,8.2,2s16.6-2,18.6,0.1
		c2,2.1,14.8,4.1,14.8,4.1s4.9,7.7,9.4,7.7c4.5,0,29.2,18.1,29.9,24.5c0,0-24.5-15.6-24.7,18.7c0,0-10.4-9.3-12.1-13.2
		s-17.8-2.3-17.8-2.3s-10.9-4.8-12.6-8c-1.7-3.2-11.9,5.1-15.1,2.7c-3.2-2.4-32.4-15.1-32.4-15.1l-9-17L194.1,191.4z"/>
	<circle class="st4" cx="138.2" cy="219.3" r="2.1"/>
	<circle class="st4" cx="136.1" cy="263.2" r="2.1"/>
	<circle class="st4" cx="138.2" cy="240.1" r="2.1"/>
	<circle class="st4" cx="132.1" cy="286.3" r="2.1"/>
	<path class="st7" d="M65.7,563.1c-1,2.9-4.2,1.8-4.2,1.8c-10.1-1.1-16.2-28.4-13.6-31.5s-1.6-10.3-1.6-10.3l-5.5,2.1l-5-15.4
		l3.2-3.9c3.1,5.5,7.7,13.3,8.7,15.3c2,4.2,3,8.7,2.8,13.4C50.2,539.5,55.8,562.5,65.7,563.1z"/>
	<path class="st7" d="M154.5,133.3c-0.5-0.2-1-0.4-1.5-0.6c-1.7-0.7-3.5-1.5-4.5-3c-0.9-1.4-1.2-3.3-2.7-4.1
		c-1.7-0.9-3.7,0.3-5.5,0.7c-2.2,0.5-4.5-0.1-6.6-0.9c-3.2-1.2-7.6-3.3-10.8-1.1c-2.5,1.7-1.5,5.4-2.2,8c-1,4-5.3,6.7-6.1,10.8
		c-0.4,1.8-0.1,4-1.6,5.1c-0.4,0.3-0.9,0.5-1.4,0.6c-5.6-11.4-1-25.2,10.4-30.8c11.4-5.6,25.2-1,30.8,10.4
		C153.5,130.1,154.1,131.7,154.5,133.3L154.5,133.3z"/>
	<path class="st6" d="M133.6,124c2.1,0.8,4.4,1.4,6.6,0.9c1.9-0.4,3.8-1.7,5.5-0.7c1.5,0.8,1.8,2.7,2.7,4.1c1,1.5,2.8,2.3,4.5,3
		c1.3,0.6,2.6,1,4,1.1c1.4,0.1,2.8-0.4,3.8-1.4c1.3-1.6,0.9-4,0.1-5.9s-1.9-3.8-1.8-5.9c0.1-2.4,1.9-4.6,2-7c0.2-3.1-2.3-5.8-5.1-7
		c-2.5-1.1-5.4-1.4-7.8-3c-2.6-1.7-4.1-4.7-6.1-7.2c-2.8-3.6-7.3-6.3-11.9-5.8c-2.8,0.3-5.4,1.8-8.2,2.4c-4.3,0.9-8.7-0.4-13,0.6
		c-1,0.2-2,0.7-2.6,1.4c-1,1.4-0.5,3.3,0,5c0.8,3,1.2,6.4-0.5,9.1c-1.9,3-5.8,4.3-7.5,7.4c-1,1.8-1.1,4-0.2,5.9
		c0.8,1.7,2.4,3.1,2.6,5c0.2,1.4-0.4,2.7-0.7,4c-0.3,1.3-0.2,3,0.9,3.7c1.1,0.7,2.6,0.6,3.5,1.5c0.5,0.7,0.7,1.7,0.4,2.6
		c-0.3,1.5-0.9,2.8-1.3,4.3c-0.4,1.4-0.2,3,0.6,4.3c1.4,1.9,4.3,1.8,6.7,1.3c0.7-0.1,1.3-0.4,1.9-0.7c1.5-1.1,1.2-3.3,1.6-5.1
		c0.8-4.1,5.1-6.7,6.1-10.8c0.6-2.6-0.3-6.3,2.2-8C126,120.7,130.5,122.9,133.6,124z"/>
	<path class="st7" d="M130,392.5c0,0,23.3,14.8,24,20.5L130,392.5z"/>
	<path class="st7" d="M128.8,404.3c0,0,26.7,12.9,25.2,17.3L128.8,404.3z"/>
	<path class="st7" d="M127,415.7c0,0,15.1,7.9,16.1,12.6L127,415.7z"/>
	<path class="st7" d="M133.5,433.5c0,0,9.9,8.7,11.9,6.4S133.5,433.5,133.5,433.5z"/>
	<path class="st7" d="M119.6,439c0,0,7.7,12.4,4,13.1C119.9,452.8,119.6,439,119.6,439z"/>
	<path class="st7" d="M85.8,219.3c0,0-13.1,7.9-9.2,9.9C80.6,231.2,85.8,219.3,85.8,219.3z"/>
	<path class="st7" d="M85.8,190.1c0,0-13.4,24.5-7.2,22.8C84.8,211.2,85.8,190.1,85.8,190.1z"/>
	<path class="st7" d="M227.7,214.6c0,0-8.2,9.6-6.7,14.8L227.7,214.6z"/>
	<path class="st7" d="M249,219.3c0,0-12.3,10.9-10.5,12.1L249,219.3z"/>
	<path class="st7" d="M256.7,232.7c0,0-1.2,7.2,0.7,7.4L256.7,232.7z"/>
	<path class="st10" d="M123,383.6c-3.2,4.1-3.2,11.3-4.6,14.3c-0.8,1.6-2.5,4.5-3.9,6.7c-0.5-1.5-1.4-2.4-2.7-1.6
		c-0.9-6.8-2.5-18.6-3-20.9c-0.7-3.3,7.4-12.2,7.4-12.2s8,1.7,10,5.8C128.2,379.7,126.1,379.5,123,383.6z"/>
	<path class="st7" d="M81.8,297.7c-8.9,1.2-25.5,25-25.5,25s-2.2-3.2-5.2-7.6c-3.8-5.6-8.9-13.2-12.6-19l21.7-22.4l4,4.3
		c0,0,7.7,7.7,7.7,9.1c0,0.6,1.5,2.3,3.4,4.3C78.1,294.3,81.8,297.7,81.8,297.7z"/>
	<path class="st7" d="M53.4,197.3c-0.3-0.6-0.6-1.1-0.7-1.4l9.6,0.6l5.1,31.6C63.5,219.5,56.1,202.7,53.4,197.3z"/>
	<path class="st7" d="M73.8,292.9c-8,7.9-19.1,19-22.6,22.3c-0.5,0.5-0.9,0.8-1,0.9c-0.3,0.2-0.7,0.4-1,0.5
		c-3.5-5.1-8.5-12.5-12.3-18.6l1.8-1.8l20.2-20.8l2.5,2.7c0,0,7.7,7.7,7.7,9.1C68.9,287.8,71.3,290.4,73.8,292.9z"/>
	<path class="st6" d="M63.7,196.6l-11.1-0.7c0,0-3,6.9-5.4,7.4c-2.5,0.5-5.7,6.2-5.7,6.2s-9.5,1.7-9.1,4.7
		c0.4,3-14.6,24.2-14.6,24.2s-4.9,10.2-1.5,17.6s5.9,12.4,6.7,15.1s9.5,14.6,9.5,16.8c-0.1,2.2,22.5,34.9,22.5,34.9
		s16.6-23.7,25.5-25c0,0-9.9-9.1-9.9-10.6s-7.6-9.1-7.6-9.1l-9.6-10.4c0,0-3.2-1.5,0-4.2s-5.4-8.9-5.4-8.9s-0.3-4.5,3-5.7
		s7.4-9.4,7.4-9.4l11.6-5.9L63.7,196.6z"/>
	<path class="st7" d="M21.2,245.8c0,0,13.4-2.7,13.6-1C35.1,246.5,21.2,245.8,21.2,245.8z"/>
	<path class="st7" d="M32.3,259.3c0,0,11.3,1.5,10.8,3.9S32.3,259.3,32.3,259.3z"/>
	<path class="st7" d="M41.7,217.2c0,0,10.9,15.4,12.4,12.2L41.7,217.2z"/>
	<g class="st11">
		<path d="M107.1,102.4c0.1-1.8-0.2-3.6-0.7-5.3c-0.2-0.7-0.4-1.5-0.5-2.2c-0.1,1.3,0.1,2.5,0.5,3.7
			C106.8,99.8,107,101.1,107.1,102.4z"/>
		<path d="M159.2,118.7c0.3-2.2,1.8-4.3,2-6.5c0-0.4,0-0.8,0-1.1c-0.3,2.3-1.9,4.3-2,6.7C159.1,118,159.1,118.4,159.2,118.7z"/>
		<path d="M160.8,129.5c-1,1-2.4,1.6-3.8,1.4c-1.4-0.2-2.8-0.5-4-1.1c-1.7-0.7-3.5-1.5-4.5-3c-0.9-1.4-1.2-3.3-2.7-4.1
			c-1.7-0.9-3.7,0.3-5.5,0.7c-2.2,0.5-4.5-0.1-6.6-0.9c-3.2-1.2-7.6-3.3-10.8-1.1c-2.5,1.7-1.5,5.4-2.2,8c-1,4-5.3,6.7-6.1,10.8
			c-0.4,1.8-0.1,4-1.6,5.1c-0.6,0.4-1.2,0.6-1.9,0.7c-2.4,0.5-5.3,0.6-6.7-1.3c-0.4-0.6-0.7-1.2-0.7-1.9c-0.2,1.2,0.1,2.4,0.7,3.4
			c1.4,1.9,4.3,1.8,6.7,1.3c0.7-0.1,1.3-0.4,1.9-0.7c1.5-1.1,1.2-3.3,1.6-5.1c0.8-4.1,5.1-6.7,6.1-10.8c0.6-2.6-0.3-6.3,2.2-8
			c3.2-2.2,7.7-0.1,10.8,1.1c2.1,0.8,4.4,1.4,6.6,0.9c1.9-0.4,3.9-1.7,5.5-0.7c1.5,0.8,1.8,2.7,2.7,4.1c1,1.5,2.8,2.3,4.5,3
			c1.3,0.6,2.6,1,4,1.1c1.4,0.1,2.8-0.4,3.8-1.4c0.7-1,1-2.2,0.8-3.4C161.5,128.2,161.2,128.9,160.8,129.5z"/>
		<path d="M100.9,124.4c-0.2-1.9-1.8-3.3-2.6-5c-0.3-0.6-0.5-1.3-0.6-2c-0.1,1.2,0.1,2.4,0.6,3.5c0.8,1.7,2.3,3,2.6,4.8
			C101,125.3,101,124.8,100.9,124.4z"/>
		<path d="M105.1,136c0.2-0.8,0.1-1.7-0.4-2.4c-0.8-1-2.4-0.7-3.5-1.5c-0.5-0.4-0.9-1.1-1-1.8c-0.2,1.2,0,2.5,1,3.3
			c1,0.7,2.6,0.6,3.5,1.5C104.9,135.4,105,135.7,105.1,136z"/>
	</g>
</g>
</svg>
