<?xml version="1.0" encoding="utf-8"?>
<!-- Generator: Adobe Illustrator 23.0.1, SVG Export Plug-In . SVG Version: 6.00 Build 0)  -->
<svg version="1.1" id="be32c85c-9388-4a2b-a4e5-271574a5b9b2"
	 xmlns="http://www.w3.org/2000/svg" xmlns:xlink="http://www.w3.org/1999/xlink" x="0px" y="0px" width="888px" height="651.9px"
	 viewBox="0 0 888 651.9" style="enable-background:new 0 0 888 651.9;" xml:space="preserve">
<style type="text/css">
	.st0{fill:#E6E6E6;}
	.st1{fill:#FFFFFF;}
	.st2{fill:#0074D9;}
	.st3{fill:#0074D9;stroke:#FFFFFF;stroke-width:2;}
	.st4{fill:url(#SVGID_1_);}
	.st5{fill:#3F3D56;}
	.st6{fill:#454B69;}
	.st7{opacity:0.1;enable-background:new    ;}
	.st8{fill:#FBBEBE;}
	.st9{opacity:5.000000e-02;enable-background:new    ;}
	.st10{opacity:0.1;}
</style>
<title>design_notes</title>
<ellipse class="st0" cx="96.7" cy="631.8" rx="96.3" ry="20"/>
<rect x="221.9" y="69" class="st0" width="643.9" height="412.4"/>
<rect x="240.3" y="120.7" class="st1" width="607" height="336.2"/>
<rect x="221.6" y="68.6" class="st2" width="643.9" height="27.4"/>
<circle class="st1" cx="241.9" cy="82.6" r="5.1"/>
<circle class="st1" cx="261.2" cy="82.6" r="5.1"/>
<circle class="st1" cx="280.4" cy="82.6" r="5.1"/>
<g>
	<rect x="475.5" y="285.2" class="st3" width="40.1" height="41.7"/>
	<rect x="595.8" y="326.9" class="st3" width="40.1" height="41.7"/>
	<rect x="515.6" y="326.9" class="st3" width="40.1" height="41.7"/>
	<rect x="475.5" y="326.9" class="st3" width="40.1" height="41.7"/>
	<rect x="555.7" y="326.9" class="st3" width="40.1" height="41.7"/>
	<rect x="555.7" y="160.2" class="st3" width="40.1" height="41.7"/>
	<rect x="595.8" y="285.2" class="st3" width="40.1" height="41.7"/>
	<rect x="595.8" y="243.6" class="st3" width="40.1" height="41.7"/>
	<rect x="595.8" y="160.2" class="st3" width="40.1" height="41.7"/>
	<rect x="555.7" y="285.2" class="st3" width="40.1" height="41.7"/>
	<rect x="515.6" y="285.2" class="st3" width="40.1" height="41.7"/>
	<rect x="555.7" y="243.6" class="st3" width="40.1" height="41.7"/>
	<rect x="475.5" y="243.6" class="st3" width="40.1" height="41.7"/>
	<rect x="515.6" y="243.6" class="st3" width="40.1" height="41.7"/>
	<rect x="555.7" y="201.9" class="st3" width="40.1" height="41.7"/>
	<rect x="475.5" y="201.9" class="st3" width="40.1" height="41.7"/>
	<rect x="515.6" y="201.9" class="st3" width="40.1" height="41.7"/>
	<rect x="595.8" y="201.9" class="st3" width="40.1" height="41.7"/>
	<rect x="635.9" y="326.9" class="st3" width="40.1" height="41.7"/>
	<rect x="595.8" y="368.5" class="st3" width="40.1" height="41.7"/>
	<rect x="635.9" y="368.5" class="st3" width="40.1" height="41.7"/>
	<rect x="555.7" y="368.5" class="st3" width="40.1" height="41.7"/>
	<rect x="635.9" y="201.9" class="st3" width="40.1" height="41.7"/>
	<rect x="515.6" y="368.5" class="st3" width="40.1" height="41.7"/>
	<rect x="635.9" y="160.2" class="st3" width="40.1" height="41.7"/>
	<rect x="635.9" y="243.6" class="st3" width="40.1" height="41.7"/>
	<rect x="635.9" y="285.2" class="st3" width="40.1" height="41.7"/>
	<rect x="475.5" y="160.2" class="st3" width="40.1" height="41.7"/>
	<rect x="435.5" y="160.2" class="st3" width="40.1" height="41.7"/>
	<rect x="475.5" y="368.5" class="st3" width="40.1" height="41.7"/>
	<rect x="435.5" y="243.6" class="st3" width="40.1" height="41.7"/>
	<rect x="515.6" y="160.2" class="st3" width="40.1" height="41.7"/>
	<rect x="435.5" y="201.9" class="st3" width="40.1" height="41.7"/>
	<rect x="435.5" y="368.5" class="st3" width="40.1" height="41.7"/>
	<rect x="435.5" y="285.2" class="st3" width="40.1" height="41.7"/>
	<rect x="435.5" y="326.9" class="st3" width="40.1" height="41.7"/>
</g>
<g>
	
		<linearGradient id="SVGID_1_" gradientUnits="userSpaceOnUse" x1="774.3204" y1="-59.1339" x2="774.3204" y2="444.5647" gradientTransform="matrix(1 0 0 -1 -665.04 578.99)">
		<stop  offset="0" style="stop-color:#808080;stop-opacity:0.25"/>
		<stop  offset="0.54" style="stop-color:#808080;stop-opacity:0.12"/>
		<stop  offset="1" style="stop-color:#808080;stop-opacity:0.1"/>
	</linearGradient>
	<path class="st4" d="M208.6,218.5h-46.6c-1.5,0-2.7,1-3,2.5l-12.6,62.3c0,0.2,0,0.3,0,0.5l-1.2,0.1l-1.1,0.1c-0.1,0-0.1,0-0.2,0
		c-0.3-0.2-0.5-0.6-0.6-1c-0.6-2.2-1.1-4.5-1.3-6.8c-0.2-2.5-0.2-5,0-7.5c0.1-2,0-4,0-5.9c0.3-2.2,0.5-4.5,0.6-6.7
		c0.1-2.4-0.1-4.8-0.7-7.1c-0.4-1.3-0.8-2.5-1.4-3.7c-0.4-3.4-0.9-6.7-1.4-10.1c-0.4-2.5-0.7-5-1.2-7.5c0.1-0.4,0.2-0.8,0.3-1.2
		c0.5-4.1-1.1-8.3-4.4-10.9c-1-0.8-2.1-1.5-3.3-2c-1-0.4-2-0.8-3-1l-16.1-5c-1.5-2.2-3-4.4-4.3-6.6c-1.3-2-2.4-4.1-3.4-6.3
		c10.8-7.7,13.8-22.6,6.6-33.9c-0.3-0.4-0.6-0.8-0.8-1.2c0.1-1.9-0.1-3.9-0.7-5.7c-0.1-0.7-0.3-1.4-0.6-2c-0.4-0.9-1-1.7-1.6-2.4
		c-0.1-0.1-0.3-0.3-0.4-0.4c-1.3-1.4-2.8-2.7-4.4-3.9c-5.3-3.9-12.5-8.6-19.1-10.1c-3.2-0.7-6.6-0.8-9.8,0l-0.5-0.1l-0.9-0.2
		c0.2,0.1,0.5,0.2,0.7,0.3c-3.4-0.8-7-0.7-10.4,0.2c-4.2,1.3-5.7,4.6-7.5,8.3c-2.9,5.9-7.3,10.9-12.8,14.6c-3.5,2.4-7.7,4.4-9.4,8.3
		c-1.6,3.6-0.5,7.7-0.1,11.7c0.9,10.8-3.7,21.4-12.3,28.1c-4.8,3.7-11.2,6.8-12.3,12.8c-0.7,4.3,1.7,8.3,3.5,12.2
		c3.8,8.3,5.1,18.4,0.6,26.3c-1.3,2.3-3,4.3-3.7,6.8c-1.2,4.4,1.4,9.3,5.2,11.8s8.6,3.3,13.2,3.3c0.8,0,1.6,0,2.4-0.1
		c-0.4,3.9-0.9,7.7-1.5,11.6c-0.9,5.7-2.1,11.4-1.8,17.1c0.2,3.1,0.9,6.3,2.9,8.7c3.2,3.8,8.7,4.5,13.6,4.4
		c7.8-0.3,15.5-2.3,23.2-2.8c-0.1,0.3-0.2,0.7-0.2,1c0,1.4,0.8,2.8,0.4,4.2c-0.2,0.5-0.4,0.9-0.7,1.3c-2,2.9-4.4,6.2-3.7,9.7
		c0.3,1.7,1.4,3.4,0.9,5.1c-0.3,0.8-0.7,1.5-1.3,2.1c-2.7,4.1-2.2,9.5-1.5,14.3l0.9,0.3c-0.3,0.6-0.5,1.1-0.8,1.7
		c-1.1,2.5-1.8,5.2-1.9,8c0.1,3.1,0.6,6.2,1.6,9.1c1.4,5,2.8,10,4.6,14.8c1.5,4.2,3.3,8.2,5.1,12.2c0.6,1.2,1.1,2.5,1.7,3.7
		c3.4,7.7,6.8,15.5,10.3,23.2c0.4,0.9,0.8,1.8,1,2.8c0.2,0.8,0.2,1.7,0.4,2.5c0.5,3.2,2.6,5.9,4.2,8.8c5.2,9.8,3.9,21.5,2.5,32.5
		c0.8,0.8,1.6,1.4,2.6,2c-0.1,1.1-0.3,2.2-0.5,3.3c-1.4,6.3-3,12.5-3.9,18.8c-0.5,3.1-0.7,6.2-0.7,9.3c0,3,1.1,6,1.1,9
		c0.7,3,1.8,5.9,2.6,8.8c0.3,4.6,0.9,9.2,1.6,13.8c0.2,4.2,0.5,8.4,0.7,12.5c0.2,3.7,0.4,7.6-1.3,10.9c0,0.1-0.1,0.2-0.2,0.3
		c-2.9-0.2-5.8,1.1-7.5,3.5c-1.7,2.5-2.8,5.5-2.9,8.6c-0.2,1.3-0.1,2.6,0.4,3.9c0.5,1,1.3,1.7,1.9,2.6c0.5,1.1,0.9,2.2,1,3.4
		c1.1,6.9,2.3,13.9,2.9,20.8c0.2,2.1,0.4,4.4,1.6,6.1s4,2.6,5.6,1.1c-1.6-8-2.4-16.2-2.3-24.3c0.5-0.1,1.1-0.1,1.6,0
		c0.3,1.4,0.7,2.8,1.1,4.2c0.3,1,0.6,2,1,3c-0.2,1.4,0,3.4-0.1,4.4c-0.1,4.4-0.1,8.8,0,13.3c0.1,2.5,0.1,5,0.3,7.6
		c0,0.3,0,0.6,0.2,0.8c0.1,0.1,0.2,0.1,0.3,0.1c0.8,0,1.7,0,2.5,0c0.1-1,0.1-2,0.1-3c0-2.3,0-4.6,0-6.9c0-2,0-3.9,0-5.9
		c0.6,3.5,1.4,7,2.3,10.5l1.8,7.4l0.2,0.7l1.5,6.3c0,0.2,0.1,0.4,0.2,0.7c0.2,0.3,0.4,0.6,0.8,0.8c6.4,4.7,14.9,5.6,22.2,2.4
		c0.3-0.1,0.5-0.3,0.8-0.5c0.4-0.5,0.6-1.2,0.5-1.9c-0.1-2,0.3-4,1.1-5.8c0.5-0.7,0.8-1.4,1.1-2.2c0.2-1.2-0.1-2.5-0.7-3.6l-1.6-3.8
		c0.8,0,1.6-0.1,2.3-0.2c1.2-1,0.3-3.1,1.3-4.3c0.4-0.4,0.8-0.7,1.3-1c1.2-1.1,1.1-3,0.5-4.5c-1.8-4.9-6.5-8.1-11-10.8l-0.6-0.4
		c-3.6-17-10.1-33.8-8.4-51c0.4-3.7,1.1-7.3,1.7-11c3-18.1,2.8-36.7,6.3-54.7c1.8-0.1,3.5-0.6,5.1-1.5c2.9-1.8,4.4-5.3,4.8-8.8
		s-0.1-6.8,0-10.3c0.1-4.9,1.3-9.8,2.5-14.6c1.4-5.6-1-11.6,0.4-17.2c0.5-1.7,1-3.5,1.3-5.3c0.3-2.5-0.2-5.2,0.7-7.5
		c0.4-1.1,1.1-2.1,1.5-3.1c2-4.5-0.2-10,1.8-14.5c0.6-1.1,1.1-2.2,1.4-3.4c0.1-0.9,0-1.9-0.4-2.8c-0.5-2.1-1-4.2-1.3-6.3
		c-0.1-0.7-0.2-1.5-0.2-2.2c0.1-0.8,0.3-1.6,0.5-2.3c1.5-5.3,1.7-10.8,1.9-16.3c0.1-2.9,0.2-6-1.1-8.6c-0.4-0.8-0.8-1.5-1.4-2.2
		l0.1-0.1c-0.8-3.1-1.4-6.8-0.3-9.8c0.5-1.3,1.3-2.5,1.1-3.9s-1.1-2.3-1.5-3.5c-0.6-2,0.3-4.2,0.9-6.2c1-3.5,0.8-7.3,0.5-10.9
		c0-0.8-0.2-1.6-0.5-2.3c-0.3-0.4-0.6-0.8-0.9-1.2c-0.5-1.1-0.5-2.3,0.1-3.4c0.6-1,1-2.1,1.4-3.2c0.1-0.3,0.1-0.7,0-1
		c0.7-0.3,1.4-0.8,2.1-1.2c3-1.6,6.5-1.4,9.9-1.5s7.1-0.8,9.2-3.5c0.2-0.3,0.5-0.6,0.8-0.8c0.1-0.1,0.2-0.1,0.3-0.1
		c1.2,0.2,2,0.2,1.8-0.2c0.6-0.3,0.8-0.9,1.1-1.4c0.1-0.1,0.2-0.3,0.3-0.4c1.3-0.7,2.6-1.4,3.9-1.9c-0.2,0-0.5,0-0.7,0
		c2.1-0.7,4.3-1,6.5-0.9c2.1,0,5.7,0.3,7.3-1.3c3-1.9,3.9-5.7,5.3-9c0.5-1.1,1-2.1,1.5-3.1l7.8-0.8c1.3-0.1,2.4-1.1,2.7-2.4
		l11.7-57.6c0.3-1.7-0.7-3.3-2.4-3.6C208.9,218.6,208.7,218.5,208.6,218.5z M61.4,297.5c-3.5,1.5-7.4,1.5-10.9,0
		c-0.5-0.2-1.1-0.9-0.7-1.3s0.8-0.1,1.1-0.2c0.6-0.3,0.2-1.3-0.2-1.9c-1-1.8-0.3-4.1,0.7-5.9s2.3-3.6,2.3-5.7c-0.1-0.7-0.1-1.3,0-2
		c0.3-0.9,0.8-1.8,1.5-2.6c0.2-0.3,0.3-0.5,0.5-0.8c0.3,0.4,0.5,0.8,0.8,1.2c0.9,1.4,1.8,2.8,2.7,4.2c0.7,0.9,1.2,2.1,1.3,3.2
		c-0.1,0.7-0.1,1.4,0.1,2.1c0.4,0.9,1.6,1.6,1.2,2.5c-0.5,0.9-0.5,2,0,2.9c0.5,0.8,1.2,1.5,1.6,2.3c0.1,0.2,0.2,0.5,0.3,0.8
		C63,296.7,62.2,297.2,61.4,297.5z M158.4,286.7c-0.6,0.1-1.2,0.3-1.8,0.4c-0.1-0.4-0.1-0.6-0.1-0.6l-3.1,0.9
		c-1.2,0.1-2.4-0.2-3.4-0.7l12.9-1.3C161.4,286,159.9,286.4,158.4,286.7z"/>
	<path class="st5" d="M63.7,146.1c-2.9,5.9-7.2,10.9-12.6,14.5c-3.5,2.4-7.6,4.4-9.3,8.2c-1.6,3.6-0.5,7.7-0.1,11.6
		c0.9,10.7-3.6,21.1-12.1,27.8c-4.8,3.7-11.1,6.8-12.1,12.7c-0.7,4.2,1.7,8.3,3.4,12.2c3.8,8.2,5.1,18.3,0.6,26.1
		c-1.3,2.2-3,4.3-3.6,6.8c-1.2,4.4,1.3,9.2,5.1,11.8S31.5,281,36,281c3.3,0,6.9-0.5,9.3-2.8c1.6-1.6,2.4-3.7,3.1-5.8l5.7-16.3
		c1-2.9,2.1-6,4.3-8.2c4.6-4.7,12.2-4.2,18.8-4.1c9.7,0.1,19.4-1.4,28.6-4.5c5.4-1.8,11.3-4.9,12.5-10.5s-2.5-10.6-5.8-15.1
		c-2.4-3.3-4.8-6.8-6.9-10.4c-2.1-3.4-4.2-7.1-4.8-11.1c-1-6.6,2.1-13.1,4.6-19.4s4.1-13.7,0.6-19.4c-1.5-2.2-3.4-4.1-5.7-5.6
		c-5.3-3.9-12.4-8.5-18.8-10.1c-3.5-0.8-7.1-0.8-10.5,0.1C66.9,139.1,65.4,142.4,63.7,146.1z"/>
	<path class="st6" d="M134.7,223.8c1.3,4.4,2.2,8.9,2.8,13.5c1.6,11,3.2,22.1,2.9,33.3c-0.1,2.5-0.1,5,0,7.5
		c0.3,2.3,0.7,4.5,1.3,6.7c0,0.4,0.3,0.8,0.6,1c0.4,0.2,0.8,0,1.3,0c1.4-0.2,2.5,1.2,3.6,2.1c2.2,1.8,5.3,2,7.8,0.6
		c-0.8,3.3,0.5,6.8,3.3,8.9c2.8,2,6.3,2.6,9.6,1.7c-1.7-0.3-3.3,0.9-4.2,2.3c-0.3,0.5-0.6,1.1-1.1,1.4s-1.5-0.1-2.1,0.3
		c-0.3,0.2-0.6,0.5-0.8,0.8c-2,2.7-5.7,3.3-9,3.4s-6.9-0.1-9.8,1.5c-0.7,0.4-1.4,0.9-2.2,1.2c-2.3,1-5.1,0-6.9-1.7
		c-1.7-1.8-2.9-4.1-3.5-6.5c-3-9.7-2.4-20-1.8-30.2C127.2,255.4,129.3,239,134.7,223.8z"/>
	<path class="st7" d="M134.7,223.8c1.3,4.4,2.2,8.9,2.8,13.5c1.6,11,3.2,22.1,2.9,33.3c-0.1,2.5-0.1,5,0,7.5
		c0.3,2.3,0.7,4.5,1.3,6.7c0,0.4,0.3,0.8,0.6,1c0.4,0.2,0.8,0,1.3,0c1.4-0.2,2.5,1.2,3.6,2.1c2.2,1.8,5.3,2,7.8,0.6
		c-0.8,3.3,0.5,6.8,3.3,8.9c2.8,2,6.3,2.6,9.6,1.7c-1.7-0.3-3.3,0.9-4.2,2.3c-0.3,0.5-0.6,1.1-1.1,1.4s-1.5-0.1-2.1,0.3
		c-0.3,0.2-0.6,0.5-0.8,0.8c-2,2.7-5.7,3.3-9,3.4s-6.9-0.1-9.8,1.5c-0.7,0.4-1.4,0.9-2.2,1.2c-2.3,1-5.1,0-6.9-1.7
		c-1.7-1.8-2.9-4.1-3.5-6.5c-3-9.7-2.4-20-1.8-30.2C127.2,255.4,129.3,239,134.7,223.8z"/>
	<path class="st8" d="M85.8,518.3c0.8,3.5,2.2,6.8,3,10.3c0.6,3,0.9,6.1,1,9.1l0.9,15.5c0.2,3.7,0.4,7.5-1.3,10.8
		c-1.1,2.3-3.1,4.2-3.6,6.7c-0.9,3.9,1.9,7.6,4.5,10.6l12.9,14.9c4,4.7,8.4,9.6,14.4,11.2c0.9,0.3,1.8,0.3,2.8,0.1
		c1.7-0.5,2.5-2.6,2.2-4.3c-0.4-1.7-1.2-3.3-2.3-4.7c-3.4-4.7-7-9.4-9.2-14.8c-2.8-6.8-3.1-14.4-2.9-21.8c0.7-30.1,8.3-59.8,7.4-90
		c-6.6-0.5-13.4-1.6-20-1.5c-5.9,0.1-5.2,6-6.2,10.8c-1.4,6.2-3,12.4-3.9,18.7c-0.5,3.1-0.7,6.2-0.7,9.3
		C84.8,512.4,85.8,515.4,85.8,518.3z"/>
	<path class="st9" d="M85.8,518.3c0.8,3.5,2.2,6.8,3,10.3c0.6,3,0.9,6.1,1,9.1l0.9,15.5c0.2,3.7,0.4,7.5-1.3,10.8
		c-1.1,2.3-3.1,4.2-3.6,6.7c-0.9,3.9,1.9,7.6,4.5,10.6l12.9,14.9c4,4.7,8.4,9.6,14.4,11.2c0.9,0.3,1.8,0.3,2.8,0.1
		c1.7-0.5,2.5-2.6,2.2-4.3c-0.4-1.7-1.2-3.3-2.3-4.7c-3.4-4.7-7-9.4-9.2-14.8c-2.8-6.8-3.1-14.4-2.9-21.8c0.7-30.1,8.3-59.8,7.4-90
		c-6.6-0.5-13.4-1.6-20-1.5c-5.9,0.1-5.2,6-6.2,10.8c-1.4,6.2-3,12.4-3.9,18.7c-0.5,3.1-0.7,6.2-0.7,9.3
		C84.8,512.4,85.8,515.4,85.8,518.3z"/>
	<path class="st5" d="M89.7,564.6c-3-0.6-6.1,1-8,3.4c-1.7,2.5-2.7,5.5-2.9,8.6c-0.2,1.3-0.1,2.6,0.4,3.8c0.5,1,1.3,1.7,1.8,2.6
		c0.5,1.1,0.9,2.2,1,3.4c1.1,6.9,2.2,13.8,2.8,20.7c0.2,2.1,0.4,4.4,1.6,6.1s4,2.6,5.5,1.1c-1.6-7.9-2.3-16-2.3-24.1
		c3.5-0.5,6.6,2.3,8.9,5c2.3,2.8,4.5,5.7,6.4,8.7c1.6,2.9,3.5,5.6,5.6,8.2c4.7,5,11.5,7.3,18.2,6.2c1.2-1,0.3-3.1,1.3-4.2
		c0.4-0.4,0.8-0.7,1.3-1c1.2-1.1,1.1-3,0.5-4.5c-1.8-4.9-6.5-8-10.9-10.8c-8-5-16.1-10-24.1-14.8c-3.1-1.9-5.4-4.8-6.6-8.2
		C90,574,88.7,564.2,89.7,564.6z"/>
	<path class="st9" d="M89.7,564.6c-3-0.6-6.1,1-8,3.4c-1.7,2.5-2.7,5.5-2.9,8.6c-0.2,1.3-0.1,2.6,0.4,3.8c0.5,1,1.3,1.7,1.8,2.6
		c0.5,1.1,0.9,2.2,1,3.4c1.1,6.9,2.2,13.8,2.8,20.7c0.2,2.1,0.4,4.4,1.6,6.1s4,2.6,5.5,1.1c-1.6-7.9-2.3-16-2.3-24.1
		c3.5-0.5,6.6,2.3,8.9,5c2.3,2.8,4.5,5.7,6.4,8.7c1.6,2.9,3.5,5.6,5.6,8.2c4.7,5,11.5,7.3,18.2,6.2c1.2-1,0.3-3.1,1.3-4.2
		c0.4-0.4,0.8-0.7,1.3-1c1.2-1.1,1.1-3,0.5-4.5c-1.8-4.9-6.5-8-10.9-10.8c-8-5-16.1-10-24.1-14.8c-3.1-1.9-5.4-4.8-6.6-8.2
		C90,574,88.7,564.2,89.7,564.6z"/>
	<path class="st8" d="M88.4,509.6c-1.6,20.1,2.9,40.1,6.9,59.9c0.4,1.6,0.6,3.2,0.6,4.8c-0.2,2-0.5,4-1,6
		c-1.5,8.2,0.4,16.5,2.4,24.6c1.3,5.6,3.2,11.9,8.4,14.3c3.7,1.7,8,1,12,0.2c1.3-0.1,2.6-0.6,3.6-1.5c1.4-1.3,1.5-3.6,1.4-5.5
		c-1.4-22.2-12.6-43.5-10.4-65.6c0.4-3.7,1.1-7.3,1.7-10.9c3.1-18.8,2.7-38.2,6.7-56.8c0.2-0.7,0.2-1.3,0-2
		c-0.3-0.6-0.9-1.2-1.5-1.5c-3.6-2.2-7.5-4.1-11.7-4.7c-3.3-0.5-7.4-0.1-10.2,1.9s-3.1,6.7-3.9,10.1
		C90.9,491.6,89.3,500.6,88.4,509.6z"/>
	<path class="st5" d="M93.7,622.5c0,0.3,0,0.5,0.1,0.8c0.1,0.1,0.2,0.2,0.3,0.2c0.8,0,1.7,0,2.5,0c0.1-1,0.1-2,0.1-3v-6.8
		c0-5.4,0-10.9-0.2-16.3c0-0.2,0-0.4-0.1-0.6c-0.1-0.1-0.2-0.2-0.3-0.3c-0.6-0.3-2-1.2-2.5-0.2s-0.3,4.2-0.3,5.5
		c-0.1,4.4-0.1,8.8,0,13.2C93.4,617.5,93.5,620,93.7,622.5z"/>
	<path class="st5" d="M137.6,384.6c0,0.7,0,1.5,0.2,2.2c0.4,2.1,0.8,4.2,1.3,6.3c0.3,0.9,0.4,1.8,0.3,2.8c-0.3,1.2-0.8,2.3-1.4,3.4
		c-2,4.5,0.1,10-1.8,14.5c-0.5,1.1-1.1,2-1.5,3.1c-0.9,2.4-0.4,5-0.7,7.5c-0.3,1.8-0.7,3.5-1.3,5.2c-1.4,5.6,0.9,11.5-0.4,17.1
		c-1.2,4.8-2.3,9.6-2.4,14.5c-0.1,3.4,0.4,6.8,0,10.2s-1.8,6.9-4.7,8.7c-2.3,1.4-5.1,1.6-7.8,1.6c-5.2,0.1-10.4-0.1-15.6-0.5
		s-10.8-1.3-14.4-4.9c1.4-10.9,2.7-22.6-2.5-32.3c-1.5-2.9-3.6-5.6-4.1-8.8c-0.1-0.8-0.2-1.7-0.4-2.5c-0.2-1-0.6-1.9-1-2.8
		c-3.4-7.7-6.8-15.4-10.1-23.1c-0.5-1.2-1.1-2.5-1.6-3.7c-1.8-4-3.5-8-5-12.1c-1.8-4.8-3.2-9.8-4.5-14.8c-0.9-2.9-1.5-6-1.5-9.1
		c0.1-2.7,0.8-5.4,1.9-7.9c0.6-1.5,1.3-2.9,2-4.3c20.1-4.7,40.8-6.5,61.4-5.3c3.3,0.1,6.6,0.6,9.7,1.6c2.1,0.8,4,2,5.6,3.7
		c0.7,0.8,1.3,1.6,1.7,2.6c1.2,2.6,1.1,5.7,1,8.6c-0.2,5.5-0.4,11-1.9,16.2C137.8,383,137.7,383.8,137.6,384.6z"/>
	<path class="st5" d="M123.5,611.3c-3,2.3-6.6,3.8-10.4,4.4c-3.3,0.5-7,0.1-9.6-2c-3-2.4-4.1-6.5-4.9-10.2l-1.1-5
		c-0.4-1.8-0.8-3.6-1.2-5.4c-0.9-4.8-1.1-9.7-0.8-14.6c-2.7,1.1-4.4,4.3-4.6,7.3s0.7,5.8,1.6,8.6c0.3,1.4,0.8,2.7,1.5,3.9
		c0.5,0.8,1.1,1.5,1.6,2.4c0.5,1.3,0.8,2.6,0.9,4c0.6,4.5,1.5,9,2.7,13.4l1.8,7.3l0.2,0.7l1.5,6.2c0,0.2,0.1,0.4,0.2,0.6
		c0.2,0.3,0.4,0.6,0.7,0.8c6.4,4.7,14.7,5.6,21.9,2.4c0.3-0.1,0.5-0.3,0.8-0.5c0.4-0.5,0.6-1.2,0.5-1.8c-0.1-2,0.3-4,1.1-5.8
		c0.5-0.7,0.8-1.4,1.1-2.1c0.2-1.2-0.1-2.5-0.7-3.5l-3.7-8.7C124.3,612.9,123.9,612.1,123.5,611.3z"/>
	<path class="st8" d="M114.8,251.1c-0.1,1.9-0.5,3.8-1.1,5.6c-0.4,1.3-1.2,2.5-2.3,3.4c-1.7-2.3-4.8-3.1-7.1-4.8
		c-1.9-1.6-3.6-3.5-4.9-5.6c-3-4-6.4-7.5-9.6-11.3c-0.5-0.6-1-1.1-1.4-1.7c-1.6-2-3.1-4.1-4.4-6.3c-2.7-4.6-4.5-9.9-8.5-13.4
		c-2.2-1.9-4.9-3.1-6.9-5.3c1.2-2,2-4.3,2.3-6.6c0.5-2.2,0.9-4.5,1.1-6.7c0.1-0.6,0.1-1.2,0.1-1.8c0-0.3,0-0.5,0-0.8
		c0-1.9-1.2-5,0.7-6.1c1.7-1,4.6-1,6.6-0.9h0.4c4.7,0.1,9.4,1.5,13.3,4.1c0.9,0.5,1.7,1.3,2.3,2.1c0.9,1.7,1.3,3.6,1,5.5
		c0,0.4,0,0.9-0.1,1.3v0.6c-0.1,2.1,0.1,4.4,1.6,5.9s4.2,1.7,6.4,2.4c0.4,0.1,0.7,0.2,1.1,0.4c2.4,1.1,4.4,2.8,5.9,5
		c1.6,2.5,2.8,5.3,3.4,8.3c0.6,2.6,1,5.3,1.1,8C115.9,238.5,115.6,244.8,114.8,251.1z"/>
	<path class="st7" d="M96.2,201.6v0.6c-2.7,1-9.2-1.8-12.2-1.8c-6,0-7.8,1.2-12.1-2.3c0.1-0.9,0.1-1.7,0.2-2.6c0-1.9-1.2-5,0.7-6.1
		s4.9-1,6.9-0.9c4.7,0.1,9.4,1.5,13.3,4.1c0.9,0.5,1.7,1.3,2.3,2.1C96.5,196.7,96.3,199.3,96.2,201.6z"/>
	<path class="st8" d="M112.8,176.7c0,13.9-11.2,25.1-25.1,25.1c-1.6,0-3.3-0.2-4.9-0.5C71,199,62.5,188.7,62.5,176.7
		c-0.3-13.9,10.8-25.4,24.6-25.6c13.9-0.3,25.4,10.8,25.6,24.6C112.8,176,112.8,176.3,112.8,176.7L112.8,176.7z"/>
	<path class="st2" d="M70.5,206.4c-0.8-0.7-1.8-1.1-2.8-1.2c-1.5,0.1-2.8,1.1-3.3,2.6c-0.6,1.4-0.8,2.8-1.3,4.2
		c-0.7,1.9-2,3.5-3.7,4.5c-1.2,0.7-2.6,1.3-3.4,2.4c-1.3,1.8-0.5,4.3,0.6,6.3c4,7.2,11.3,12,18.3,16.4l7.9,5c3.2,2.1,6.4,4,9.8,5.8
		c5.5,2.7,11.4,4.4,16.8,7.2c2.5,1.3,5,2.8,7.7,3.2c0.6-1.9,0.9-3.8,1.1-5.7c1.4-12,2.7-24.3,0-36c-0.4-2.3-1.3-4.4-2.8-6.2
		c-1-1-2.2-1.8-3.5-2.4c-3.2-1.7-6.5-3.3-9.8-4.6c-1.6-0.8-3.3-1.1-5.1-1.1c0.2,1.3,0.5,2.6,1.2,3.8c4.2,9.4,8.4,18.8,12.7,28.2
		c0.9,1.7,1.5,3.6,1.5,5.6c-0.1,2.8-2,5.5-1.2,8.1c-7.4-10.7-15.8-20.7-25.3-29.7c-0.4-0.3-0.8-0.8-1-1.3c-0.2-0.8-0.3-1.6-0.1-2.3
		c0.1-1.5-0.2-3.5-1.5-4.5c-0.9-0.7-2.1-0.9-3.1-1.5C76.9,211,73.7,208.6,70.5,206.4z"/>
	<path class="st7" d="M137.7,357.1c-6.4,3.2-13.3,5.1-20.4,5.6c-7.1,0.5-14.2,0.5-21.3,0.1l-16.1-0.6c-7.3-0.3-14.5-0.9-21.5-3.1
		c0.6-1.5,1.3-2.9,2-4.3c20.1-4.7,40.8-6.5,61.4-5.3c3.3,0.1,6.6,0.6,9.7,1.6c2.1,0.8,4,2,5.6,3.7
		C137.3,355.7,137.5,356.4,137.7,357.1z"/>
	<path class="st6" d="M136.5,278.5c-2.8,9.4-0.9,19.7,0.9,29.4c1,0.7,1.5,1.9,1.1,3.1c-0.3,1.1-0.8,2.2-1.3,3.2
		c-0.5,1-0.6,2.3-0.1,3.4c0.3,0.4,0.6,0.8,0.9,1.2c0.3,0.7,0.5,1.5,0.5,2.3c0.2,3.6,0.4,7.4-0.5,10.9c-0.6,2-1.5,4.2-0.9,6.2
		c0.4,1.2,1.3,2.3,1.5,3.5s-0.6,2.6-1.1,3.9c-1.1,3-0.5,6.6,0.3,9.7c-6.4,3.2-13.3,5.1-20.4,5.6c-7.1,0.5-14.2,0.6-21.3,0.1
		l-16.1-0.6c-7.4-0.3-14.6-0.9-21.6-3.1c-0.7-4.9-1.3-10.2,1.5-14.2c0.5-0.6,0.9-1.4,1.3-2.1c0.5-1.7-0.6-3.4-0.9-5
		c-0.7-3.5,1.6-6.7,3.6-9.6c0.3-0.4,0.5-0.8,0.7-1.3c0.4-1.3-0.4-2.8-0.5-4.2c0-0.4,0.1-0.8,0.3-1.1c0.3-0.6,0.9-1,1.1-1.5
		c0.3-0.7,0.4-1.5,0.3-2.3c-0.4-5-1-10-1.8-15c-0.1-0.4-0.2-0.9-0.3-1.4c-0.1-0.7-0.4-1.4-0.7-2c-0.5-0.8-1.2-1.5-1.6-2.3
		c-0.5-0.9-0.5-2,0-2.9c0.4-0.8-0.8-1.6-1.2-2.4c-0.2-0.7-0.2-1.4-0.1-2.1c-0.1-1.2-0.6-2.3-1.3-3.2c-0.9-1.4-1.8-2.8-2.7-4.1
		c-4-6.2-8.2-12.3-12.5-18.3c-2.1-2.9-4.2-5.7-6.3-8.5c-1.7-2.3-3.5-4.6-4.4-7.3c-0.2-0.5-0.3-1-0.4-1.5c-0.5-2.6-0.1-5.3,1.1-7.7
		c1.2-2,2.5-3.9,4-5.6c1.4-2.1,3-4.2,4.6-6.2c1.7-2,4.1-3.2,6.7-3.4c1.5,0,3.2,0.4,4.3-0.6c0.4-0.4,0.6-0.9,1-1.3
		c1.1-1,2.9-0.3,4.2,0.4l25.2,14.2l4.1,2.3c0.7,0.4,1.5,0.9,2.2,1.3c3.5,2,6.8,4.3,10,6.8c4.7,3.7,9.8,7.2,13.9,11.6
		c0.4,0.4,0.8,0.8,1.1,1.3c0.7-5.1,1.5-10.2,2.2-15.4c0.3-1.5,0.4-3,0.3-4.5c-0.2-1.5-0.6-2.9-1.1-4.3c-0.2-0.5-0.3-1-0.5-1.5
		c-0.9-2.7-1.8-5.4-2.7-8.1c-1.3-4-2.8-8.1-5.8-11.1c-0.7-0.6-1.4-1.3-2-2l0,0c-0.6-0.8-0.8-1.7-0.5-2.6l21.2,6.6c1,0.3,2,0.6,3,1
		c1.2,0.5,2.3,1.2,3.3,2c3.2,2.6,4.9,6.7,4.4,10.8c-0.2,1.3-0.7,2.6-1,3.9c-0.5,2.4-1.3,5.1-0.2,7.3s2,4.1,2.9,6.2
		c0.8,1.6,1.5,3.2,2,4.9c0.6,2.3,0.8,4.7,0.7,7.1c-0.1,5.3-1,10.6-2.7,15.6C137.7,275.3,137,276.9,136.5,278.5z"/>
	<polygon class="st5" points="93.2,290.5 143.5,285.7 152.3,284.7 144.2,287.6 	"/>
	<polygon class="st5" points="92.1,292.9 92.1,289.1 145.4,286.5 148,288.7 	"/>
	<path class="st8" d="M92.3,285.7c1.1-0.3,2.3-0.2,3.4-0.5c1.5-0.4,2.8-1.3,4.3-1.4c0.9-0.1,1.9,0,2.8,0.2l6.9,1.2
		c0.5,0.1,1.1,0.3,1.3,0.8c0.1,0.5-0.1,1-0.4,1.3c-1.2,1.3-3.2,1.5-5,1.6l-4.8,0.3c-0.9,0-1.9,0.2-2.7,0.6c-0.8,0.5-1.2,1.5-0.9,2.4
		c0.3,0.4,0.6,0.8,1.1,1c1.9,1.1,4.1,1.5,6.3,1.2c1.8-0.3,3.5-0.8,5.1-1.5c4.2-1.4,8.7-1.8,13.1-1.4c1.1,0.1,2.5,0.4,2.9,1.5
		c0.2,0.8,0,1.6-0.5,2.2c-1.7,2.4-5.1,2.5-8,3.1c-2.7,0.6-5.3,1.9-7.4,3.8c0.6,1.3,0.1,2.9-0.5,4.2c-0.7,1.5-1.6,2.9-2.6,4.3
		c-0.5,0.8-1.3,1.5-2.2,2c-0.6,0.2-1.2,0.3-1.8,0.3c-6,0.4-12,0-17.9-1c-0.6,0-1.2-0.3-1.7-0.7c-0.3-0.4-0.5-0.9-0.6-1.4
		c-0.6-3-1.1-6-1.6-9.1c-0.4-1.9-0.3-3.9,0.5-5.7c0.7-1.4,1.9-1.8,3.1-2.8C87.3,290.1,88.9,286.6,92.3,285.7z"/>
	<path class="st5" d="M157.2,223.2l-12.5,61.9c-0.4,1.6,0.7,3.2,2.3,3.6c0.3,0.1,0.7,0.1,1,0l47.1-4.6c1.3-0.1,2.4-1.1,2.7-2.4
		l11.5-57.3c0.3-1.6-0.7-3.2-2.3-3.6c-0.2,0-0.5-0.1-0.7-0.1h-46.1C158.8,220.7,157.5,221.7,157.2,223.2z"/>
	<path class="st8" d="M180.7,296.8c3-1.9,3.9-5.7,5.2-8.9c1.1-2.4,2.4-4.7,3.8-6.9c1.2-2,2.4-4.4,1.5-6.5c-0.7-1.3-2-2.4-3.5-2.8
		c-1.3-0.6-2.8-0.8-4.3-0.5c-1.6,0.4-2.8,1.8-3.9,3l-3.9,4.5c-1.7,2.2-3.7,4-5.9,5.5c-1.4,0.8-2.9,1.4-4.5,1.9
		c-2.8,0.9-5.6,1.7-8.5,2.4c-1.6,0.3-3.2,0.8-4.8,1.5c-0.6,0.2-1.1,0.7-1.4,1.3c-0.1,0.8,0.1,1.5,0.5,2.1c1,1.8,2.1,5.6,4.2,6.2
		c2,0.5,3.9,0.8,6,0.9c2,0.2,3.5-0.6,5.3-1.3c2.2-0.8,4.6-1.2,7-1.1C175.5,298.2,179,298.5,180.7,296.8z"/>
	<path class="st6" d="M154.9,288.5c0,0,1.8,11.9,12.9,10.6c0,0-5.9,2.4-5.3,3.7s-13.7-2.6-13.7-2.6l-0.7-6.2c0,0-0.5-3.4,0-3.5
		S154.9,288.5,154.9,288.5z"/>
	<path class="st7" d="M154.9,288.5c0,0,1.8,11.9,12.9,10.6c0,0-5.9,2.4-5.3,3.7s-13.7-2.6-13.7-2.6l-0.7-6.2c0,0-0.5-3.4,0-3.5
		S154.9,288.5,154.9,288.5z"/>
	<path class="st7" d="M103.6,238.7c1.1,0.6,2,1.4,2.6,2.5c0.9,1.5,1.6,3.1,2.1,4.8c0.6,2,0.8,4.4,2.3,5.8"/>
	<path class="st7" d="M56.9,271.7c0.8,2.9,0.5,6-0.9,8.6c-4-6.2-8.2-12.3-12.5-18.3c-2.1-2.9-4.2-5.7-6.3-8.5
		c-1.7-2.3-3.5-4.6-4.4-7.3c-0.2-0.5-0.3-1-0.4-1.5c1.1-1.6,2.7-2.7,4.5-3.3c2.9,8.5,10.3,14.5,15.6,21.8
		C54.5,265.7,56,268.6,56.9,271.7z"/>
	<path class="st7" d="M94.2,315.1l-17.5,0.6c-1.5,0-3.3,0.3-3.8,1.8c-0.1,0.5-0.1,0.9-0.3,1.4c-0.5,1.6-2.6,1.8-4.3,1.8
		c-1.4,0-2.9,0.1-4.3,0.2c0-0.4,0.1-0.8,0.3-1.1c0.3-0.6,0.9-1,1.1-1.5c0.3-0.7,0.4-1.5,0.3-2.3c-0.4-5-1-10-1.8-15
		c-0.1-0.4-0.2-0.9-0.3-1.4c1.4-0.9,2.9-1.4,4.6-1.4c1.4,0.2,2.8,1,4.2,0.9c2.5-0.1,4.2-2.9,6.7-3.1c0.5,0,1.1,0,1.6-0.2
		c0.8-0.4,0.9-1.5,1.3-2.2c0.6-1.2,2.3-1.4,3.6-1.1c0,2.6,0.1,5.3,0.5,7.9c0.1,1.1,0.4,2.3,0.8,3.4c0.5,1.1,1.1,2.1,1.8,3.1
		C90.5,309.5,92.3,312.2,94.2,315.1z"/>
	<path class="st6" d="M36,240.5c-3.1,0.8-5.3,3.7-6.2,6.8s-0.8,6.4-0.7,9.6c0.3,11.9-0.5,23.8-2.4,35.6c-0.9,5.6-2.1,11.3-1.8,17
		c0.2,3.1,0.9,6.3,2.9,8.7c3.1,3.7,8.6,4.5,13.4,4.3c8.8-0.3,17.4-2.9,26.1-2.9c1.7,0,3.8-0.2,4.3-1.8c0.1-0.4,0.1-0.9,0.3-1.4
		c0.5-1.4,2.3-1.7,3.8-1.8l17.5-0.6c-1.9-2.8-3.7-5.5-5.6-8.3c-0.7-1-1.3-2-1.8-3.1c-0.4-1.1-0.7-2.2-0.8-3.4
		c-0.4-2.6-0.5-5.3-0.5-7.9c-1.3-0.3-3,0-3.6,1.1c-0.4,0.8-0.5,1.8-1.3,2.2c-0.5,0.2-1.1,0.2-1.6,0.2c-2.5,0.2-4.2,3-6.7,3.1
		c-1.4,0.1-2.8-0.8-4.2-0.9c-2.3-0.2-4.3,1.3-6.4,2.2c-3.4,1.5-7.4,1.5-10.8,0c-0.5-0.2-1.1-0.9-0.7-1.2s0.8-0.1,1.1-0.2
		c0.6-0.3,0.2-1.3-0.2-1.9c-1-1.8-0.3-4,0.7-5.9s2.2-3.6,2.3-5.7c-0.1-0.7-0.1-1.3,0-2c0.3-0.9,0.8-1.8,1.5-2.5
		c1.7-2.7,2.2-6.1,1.3-9.2c-0.9-3.1-2.4-5.9-4.4-8.4C46.3,255.1,38.9,249,36,240.5z"/>
	<path class="st7" d="M83.4,234.6l4.1,2.3c-1.3,0.6-2.5,1.1-3.8,1.5c-9.2,3.1-5.9,7.4-15.6,7.3c-6.6-0.1-14.1-0.6-18.8,4.1
		c-2.2,2.2-3.3,5.3-4.3,8.2c-0.5,1.3-0.9,2.7-1.4,4c-2.1-2.9-4.2-5.7-6.3-8.5c-1.7-2.3-3.5-4.6-4.4-7.3c-0.9-3-0.7-6.3,0.7-9.2
		c1.2-2,2.5-3.9,4-5.6c1.4-2.1,3-4.2,4.6-6.2c1.7-2,4.1-3.2,6.7-3.4c1.5,0,3.2,0.4,4.3-0.6c0.4-0.4,0.6-0.9,1-1.3
		c1.1-1,2.9-0.3,4.2,0.4L83.4,234.6z"/>
	<path class="st5" d="M107.7,158.1c-0.1-1.2-0.4-2.4-0.9-3.5c-0.4-0.9-1-1.7-1.6-2.4c-4.3-4.8-10.4-7.6-16.9-7.7
		c-0.6,0-1.1,0.1-1.6,0.3c-0.1,0.1-0.2,0.1-0.4,0.2c-4.6-3.1-10-6.2-15-7.4c-3.5-0.8-7.1-0.8-10.5,0.1c-4.2,1.3-5.6,4.6-7.4,8.3
		c-2.9,5.9-7.2,10.9-12.6,14.5c-3.5,2.4-7.6,4.4-9.3,8.2c-1.6,3.6-0.5,7.7-0.1,11.6c0.9,10.7-3.7,21.1-12.1,27.8
		C14.5,212,8.1,215,7.1,221c-0.7,4.2,1.6,8.3,3.4,12.2c3.8,8.2,5.1,18.3,0.6,26.1c-1.3,2.2-3,4.3-3.6,6.8c-1.2,4.4,1.3,9.2,5.1,11.8
		s8.5,3.3,13.1,3.2c3.3,0,6.9-0.5,9.3-2.8c1.5-1.7,2.5-3.7,3.1-5.8c1.9-5.4,3.8-10.9,5.8-16.3c1-2.9,2.1-6,4.3-8.2
		c4.6-4.7,12.2-4.2,18.8-4.1c9.7,0.1,6.4-4.2,15.6-7.3c5.4-1.8,11.3-4.9,12.5-10.5s-2.5-10.6-5.8-15.1c-2.5-3.3-4.8-6.8-6.9-10.4
		c-2.1-3.4-4.2-7.1-4.8-11.1c-1-6.6,15.1-10.4,17.6-16.6c0.7-1.8,1.3-3.6,1.7-5.4c1.2-0.1,2.2-0.2,3-0.2c3.1-0.1,6.6-1.4,7.6-4.3
		C108.1,161.4,108.1,159.7,107.7,158.1z"/>
	<g class="st10">
		<path d="M80.6,142.6c0.5-0.2,1.1-0.3,1.6-0.3h0.2c-3.4-2.2-7.1-3.8-11-4.9l-0.9-0.2c3.4,1.6,6.7,3.4,9.8,5.5
			C80.3,142.8,80.4,142.7,80.6,142.6z"/>
		<path d="M107.7,157.9c-0.1-1.2-0.4-2.4-0.9-3.5c-0.4-0.9-1-1.7-1.6-2.4c-3.4-3.9-8-6.4-13.1-7.3c2.7,1.3,5,3.1,7,5.3
			c0.7,0.7,1.2,1.5,1.6,2.4c0.5,1.1,0.8,2.3,0.9,3.5c0.4,1.6,0.4,3.3-0.1,4.8c-1.1,2.9-4.5,4.1-7.6,4.2c-0.8,0-1.8,0.1-3,0.2
			c-0.5,1.8-1,3.7-1.7,5.4c-2.4,6.3-18.5,10-17.6,16.6c0.6,4,2.6,7.6,4.7,11.1s4.5,7,6.9,10.4c3.3,4.5,7,9.7,5.8,15.1
			s-7.1,8.7-12.5,10.5c-9.2,3.1-5.9,7.4-15.6,7.3c-6.6-0.1-14.2-0.6-18.8,4.1c-2.2,2.2-3.3,5.3-4.3,8.2L32,270.2
			c-0.6,2.1-1.6,4.1-3.1,5.8c-2.4,2.3-5.9,2.8-9.3,2.8c-1.9,0-3.8-0.1-5.6-0.4c3.5,1.9,7.7,2.5,11.8,2.4c3.3,0,6.9-0.5,9.3-2.8
			c1.5-1.7,2.5-3.7,3.1-5.8c1.9-5.4,3.8-10.9,5.8-16.3c1-2.9,2.1-6,4.3-8.2c4.6-4.7,12.2-4.2,18.8-4.1c9.7,0.1,6.4-4.2,15.6-7.3
			c5.4-1.8,11.3-4.9,12.5-10.5s-2.5-10.6-5.8-15.1c-2.5-3.3-4.8-6.8-6.9-10.4c-2.1-3.4-4.2-7.1-4.8-11.1c-1-6.6,15.1-10.4,17.6-16.6
			c0.7-1.8,1.3-3.6,1.7-5.4c1.2-0.1,2.2-0.2,3-0.2c3.1-0.1,6.6-1.4,7.6-4.3C108.1,161.2,108.1,159.5,107.7,157.9z"/>
	</g>
</g>
</svg>
