<?xml version="1.0" encoding="utf-8"?>
<!-- Generator: Adobe Illustrator 23.0.1, SVG Export Plug-In . SVG Version: 6.00 Build 0)  -->
<svg version="1.1" id="b71cf957-6104-44bf-a28a-c3091bf56141"
	 xmlns="http://www.w3.org/2000/svg" xmlns:xlink="http://www.w3.org/1999/xlink" x="0px" y="0px" width="820.8px" height="526.4px"
	 viewBox="0 0 820.8 526.4" style="enable-background:new 0 0 820.8 526.4;" xml:space="preserve">
<style type="text/css">
	.st0{fill:#FFB8B8;}
	.st1{fill:#E6E6E6;}
	.st2{fill:#FFFFFF;}
	.st3{fill:#0074D9;}
	.st4{fill:#2F2E41;}
	.st5{fill:#3F3D56;}
</style>
<path class="st0" d="M661,297l-9.7,13.2c-2.7,3.7-7.7,4.9-11.8,2.8l0,0c-4.6-2.3-6.4-8-4.1-12.6c0.7-1.4,1.8-2.7,3.2-3.5l12.3-8.2
	l35.3-35.3l3.9-12.6h26.6l-13.9,30L661,297z"/>
<path class="st1" d="M370.3,296.2c-2.6,0-4.6,2.1-4.6,4.6v219.5c0,2.6,2.1,4.6,4.6,4.6h296.4c2.6,0,4.6-2.1,4.6-4.6V300.9
	c0-2.6-2.1-4.6-4.6-4.6H370.3z"/>
<path class="st2" d="M378.5,512.5h279.9V308.8H378.5V512.5z"/>
<path class="st1" d="M619,367.1H450.4c-3.3,0-6,2.7-6,6c0,3.3,2.7,6,6,6l0,0H619c3.3,0,6-2.7,6-6C625,369.8,622.3,367.1,619,367.1z"
	/>
<path class="st1" d="M450.4,404.1c-3.3,0-6,2.7-6,6c0,3.3,2.7,6,6,6l0,0H619c3.3,0,6-2.7,6-6c0-3.3-2.7-6-6-6H450.4z"/>
<path class="st1" d="M450.4,441.2c-3.3,0-6,2.7-6,6c0,3.3,2.7,6,6,6H619c3.3,0,6-2.7,6-6c0-3.3-2.7-6-6-6H450.4z"/>
<circle class="st3" cx="418.5" cy="373.6" r="7.4"/>
<circle class="st1" cx="418.5" cy="410.6" r="7.4"/>
<circle class="st1" cx="418.5" cy="447.7" r="7.4"/>
<path class="st3" d="M551.8,373.1L551.8,373.1c0,3.3-2.7,6-6,6h-95.2c-3.1,0-5.7-2.2-6.2-5.2c-0.4-3.3,1.9-6.3,5.2-6.8
	c0.3,0,0.5-0.1,0.8-0.1h95.4C549.1,367.1,551.8,369.8,551.8,373.1L551.8,373.1z"/>
<circle class="st1" cx="518.5" cy="246.2" r="24.1"/>
<ellipse transform="matrix(0.1602 -0.9871 0.9871 0.1602 192.3686 718.5755)" class="st2" cx="518.5" cy="246.2" rx="12" ry="12"/>
<path class="st0" d="M787.2,488.5l-12.2,5.7L756.5,459c-11.4-17.5-18.9-38.5-24.1-61.4l19.2,1.3c11.4,16.3,19.9,32.6,22.6,49
	L787.2,488.5z"/>
<polygon class="st4" points="755.4,403.2 731,403.2 731,361 750.6,357.5 "/>
<path class="st3" d="M724.1,243.9c-11.9-2.3-24-2.7-36-1.4l7-35.1c1.4-6.9,7-12.2,14-13.1l0,0c9-1.2,17.3,5.2,18.4,14.2
	c0.2,1.3,0.2,2.6,0,3.9L724.1,243.9z"/>
<circle class="st0" cx="706.9" cy="151.4" r="20.5"/>
<path class="st0" d="M738.4,175.1l-27,19.2l-7.2-34.2l20.2-8.1C725.3,161,730.2,168.6,738.4,175.1z"/>
<path class="st4" d="M727.3,149.2c-1.5-3.1-3.4-1-5.1,2.8l-2.4-9.7l-2.9-1l-1.9-7.7c-8.9-2.1-16,2.3-25.1,7.2l-3.5,8.3l0,0
	c-5.1-10.4-0.8-23,9.6-28.1c1.4-0.7,3-1.2,4.5-1.6c1.5-0.3,3.1-0.5,4.6-0.5l0,0c12.1-0.1,22,9.6,22.2,21.7c0,0.3,0,0.6,0,0.9
	L727.3,149.2z"/>
<path class="st4" d="M790.7,505.2l-41.6,13.6c-2.9,0.6-5.9-0.9-7.1-3.6l0,0c-1.3-2.8-0.3-6.1,2.2-7.8c8.2-5.6,14.8-11.6,17.8-18.4
	c2.8-11.3,5.9-11.3,9.3-2.9c9.4,5.6,7.9,1.1,13.8-5.8l9,17.1c1.4,2.7,0.4,6-2.3,7.4C791.4,505,791.1,505.1,790.7,505.2z"/>
<path class="st0" d="M692.3,515.1l-13.9-6.1l5-35.7l9.8-70.1l26.6,3.5c-0.6,24.3-6.6,48.2-17.7,69.9L692.3,515.1z"/>
<path class="st4" d="M737.6,414.1l-46.1-9.1l12.2-64l-2.2-17.4h60.5C759.7,346.1,749.2,379.4,737.6,414.1z"/>
<path class="st3" d="M764.1,329.7c-22.3-5.7-44.3-6.5-65.7,0c-4-41.3-5.1-80.7-1.6-117c0.8-8.8,5.1-16.9,11.8-22.6l25.5-21.4
	L753,178c5,2.5,8.2,7.5,8.3,13.1C765.4,246.1,768.6,298.4,764.1,329.7z"/>
<path class="st0" d="M786.3,322.7l3.8,13.3c1.5,5.4-1.6,11-7,12.6c-0.4,0.1-0.8,0.2-1.2,0.3l0,0c-5.6,0.9-10.8-2.9-11.6-8.5
	c-0.2-1-0.2-1.9,0-2.9l1.7-13.1l-9.1-66.2l-12.2-26.1l24.4-10.9l10,32.6L786.3,322.7z"/>
<path class="st4" d="M687.9,526.2l-42.7-10c-2.8-1-4.6-3.8-4.2-6.7l0,0c0.4-3.1,2.9-5.4,5.9-5.6c9.9-0.6,18.6-2.3,24.7-6.6
	c8.2-8.2,10.9-6.6,9.5,2.4c5.2,9.6,6.2,5,14.8,2.1l-1.1,19.3c-0.2,3-2.8,5.4-5.8,5.2C688.6,526.3,688.2,526.3,687.9,526.2z"/>
<path class="st3" d="M778.9,224.3c-10.3,0.8-21.6,6.8-33.1,14.4L737,204c-1.7-6.8,1.1-14,7-17.8l0,0c7.6-5,17.8-2.8,22.8,4.8
	c0.7,1.1,1.3,2.3,1.7,3.5L778.9,224.3z"/>
<path class="st1" d="M4.6,106.8c-2.5,0-4.6,2.1-4.6,4.6v217.5c0,2.5,2.1,4.6,4.6,4.6h293.7c2.5,0,4.6-2.1,4.6-4.6V111.4
	c0-2.5-2.1-4.6-4.6-4.6L4.6,106.8z"/>
<path class="st2" d="M11.5,322h279.9V118.3H11.5V322z"/>
<path class="st1" d="M39,214.4c-3.3,0-6,2.7-6,6s2.7,6,6,6h224.9c3.3,0,6-2.7,6-6s-2.7-6-6-6H39z"/>
<path class="st1" d="M39,251.1c-3.3,0-6,2.7-6,6s2.7,6,6,6h224.9c3.3,0,6-2.7,6-6s-2.7-6-6-6H39z"/>
<path class="st3" d="M139.5,289.7c-3.3,0-6,2.7-6,6s2.7,6,6,6h23.9c3.3,0,6-2.7,6-6s-2.7-6-6-6H139.5z"/>
<path class="st3" d="M119.5,138.7c-1,0-1.8,0.8-1.8,1.8v46.6c0,1,0.8,1.8,1.8,1.8h64c1,0,1.8-0.8,1.8-1.8v-46.6c0-1-0.8-1.8-1.8-1.8
	H119.5z"/>
<circle class="st2" cx="151.4" cy="158.7" r="10.1"/>
<path class="st2" d="M168,184.4c0,1.6-0.4,3.2-1.1,4.6H136c-2.5-5-0.6-11,4.4-13.6c1.4-0.7,3-1.1,4.6-1.1h12.8
	C163.4,174.3,168,178.8,168,184.4C168,184.3,168,184.3,168,184.4z"/>
<circle class="st2" cx="151.4" cy="158.7" r="10.1"/>
<path class="st2" d="M168,184.4c0,1.6-0.4,3.2-1.1,4.6H136c-2.5-5-0.6-11,4.4-13.6c1.4-0.7,3-1.1,4.6-1.1h12.8
	C163.4,174.3,168,178.8,168,184.4C168,184.3,168,184.3,168,184.4z"/>
<circle class="st1" cx="151.4" cy="55.9" r="23.9"/>
<circle class="st3" cx="151.4" cy="55.9" r="11.9"/>
<polygon class="st5" points="820.4,525.7 246.3,525.7 246.3,523.5 820.8,523.5 "/>
</svg>
